<svg xmlns="http://www.w3.org/2000/svg" xmlns:xlink="http://www.w3.org/1999/xlink" width="1270.861" height="335.787" viewBox="0 0 1270.861 335.787">
  <defs>
    <filter id="Path_35" x="53.083" y="40.31" width="235.078" height="268.302" filterUnits="userSpaceOnUse">
      <feOffset dy="3" input="SourceAlpha"/>
      <feGaussianBlur stdDeviation="3" result="blur"/>
      <feFlood flood-opacity="0.161"/>
      <feComposite operator="in" in2="blur"/>
      <feComposite in="SourceGraphic"/>
    </filter>
    <filter id="Path_36" x="365.551" y="36.78" width="235.078" height="268.302" filterUnits="userSpaceOnUse">
      <feOffset dy="3" input="SourceAlpha"/>
      <feGaussianBlur stdDeviation="3" result="blur-2"/>
      <feFlood flood-opacity="0.161"/>
      <feComposite operator="in" in2="blur-2"/>
      <feComposite in="SourceGraphic"/>
    </filter>
    <filter id="Path_38" x="678.02" y="36.78" width="235.078" height="268.302" filterUnits="userSpaceOnUse">
      <feOffset dy="3" input="SourceAlpha"/>
      <feGaussianBlur stdDeviation="3" result="blur-3"/>
      <feFlood flood-opacity="0.161"/>
      <feComposite operator="in" in2="blur-3"/>
      <feComposite in="SourceGraphic"/>
    </filter>
    <filter id="Path_40" x="990.488" y="40.31" width="235.078" height="268.302" filterUnits="userSpaceOnUse">
      <feOffset dy="3" input="SourceAlpha"/>
      <feGaussianBlur stdDeviation="3" result="blur-4"/>
      <feFlood flood-opacity="0.161"/>
      <feComposite operator="in" in2="blur-4"/>
      <feComposite in="SourceGraphic"/>
    </filter>
  </defs>
  <g id="about-steps" transform="translate(0 9)">
    <g transform="matrix(1, 0, 0, 1, 0, -9)" filter="url(#Path_35)">
      <path id="Path_35-2" data-name="Path 35" d="M1194.327-5900.959l107.344-65.287,109.734,65.287v119.474l-109.734,65.541-107.344-65.541Z" transform="translate(-1132.24 6012.56)" fill="#fff"/>
    </g>
    <g transform="matrix(1, 0, 0, 1, 0, -9)" filter="url(#Path_36)">
      <path id="Path_36-2" data-name="Path 36" d="M1194.327-5900.959l107.344-65.287,109.734,65.287v119.474l-109.734,65.541-107.344-65.541Z" transform="translate(-819.78 6009.03)" fill="#fff"/>
    </g>
    <g transform="matrix(1, 0, 0, 1, 0, -9)" filter="url(#Path_38)">
      <path id="Path_38-2" data-name="Path 38" d="M1194.327-5900.959l107.344-65.287,109.734,65.287v119.474l-109.734,65.541-107.344-65.541Z" transform="translate(-507.31 6009.03)" fill="#fff"/>
    </g>
    <g transform="matrix(1, 0, 0, 1, 0, -9)" filter="url(#Path_40)">
      <path id="Path_40-2" data-name="Path 40" d="M1194.327-5900.959l107.344-65.287,109.734,65.287v119.474l-109.734,65.541-107.344-65.541Z" transform="translate(-194.84 6012.56)" fill="#fff"/>
    </g>
    <path id="Path_34" data-name="Path 34" d="M1194.327-5911.016l90.809-55.23,92.831,55.23v101.07l-92.831,55.446-90.809-55.446Z" transform="translate(-1115.613 6022.304)" fill="none" stroke="#ecc333" stroke-width="1"/>
    <path id="Path_37" data-name="Path 37" d="M1194.327-5911.016l90.809-55.23,92.831,55.23v101.07l-92.831,55.446-90.809-55.446Z" transform="translate(-803.144 6018.774)" fill="none" stroke="#ecc333" stroke-width="1"/>
    <path id="Path_39" data-name="Path 39" d="M1194.327-5911.016l90.809-55.23,92.831,55.23v101.07l-92.831,55.446-90.809-55.446Z" transform="translate(-490.675 6018.774)" fill="none" stroke="#ecc333" stroke-width="1"/>
    <path id="Path_41" data-name="Path 41" d="M1194.327-5911.016l90.809-55.23,92.831,55.23v101.07l-92.831,55.446-90.809-55.446Z" transform="translate(-178.207 6022.304)" fill="none" stroke="#ecc333" stroke-width="1"/>
    <path id="Path_42" data-name="Path 42" d="M1166.773-5819.793s1.951-163.858,153.422-163.667,157.471,154.914,157.471,154.914,5.179,157.9,164,155.028,146.283-177.855,146.283-177.855.354-126.054,152.747-132.087,159.255,172.451,159.255,172.451,16.568,144.836,167.575,137.491,143.056-150.462,143.056-150.462" transform="translate(-1153.311 5987.178)" fill="none" stroke="#ecc333" stroke-width="2" stroke-dasharray="5"/>
    <path id="Polygon_1" data-name="Polygon 1" d="M12.825,0,25.65,20.987H0Z" transform="translate(0 158.894)" fill="#ecc333"/>
    <path id="Polygon_5" data-name="Polygon 5" d="M12.825,0,25.65,20.987H0Z" transform="translate(620.274 158.894)" fill="#ecc333"/>
    <path id="Polygon_9" data-name="Polygon 9" d="M12.825,0,25.65,20.987H0Z" transform="translate(1245.211 158.894)" fill="#ecc333"/>
    <path id="Polygon_2" data-name="Polygon 2" d="M12.825,0,25.65,20.987H0Z" transform="translate(191.213 -9) rotate(90)" fill="#ecc333"/>
    <path id="Polygon_6" data-name="Polygon 6" d="M12.825,0,25.65,20.987H0Z" transform="translate(806.822 -9) rotate(90)" fill="#ecc333"/>
    <path id="Polygon_4" data-name="Polygon 4" d="M12.825,0,25.65,20.987H0Z" transform="translate(503.681 301.137) rotate(90)" fill="#ecc333"/>
    <path id="Polygon_8" data-name="Polygon 8" d="M12.825,0,25.65,20.987H0Z" transform="translate(1121.623 301.137) rotate(90)" fill="#ecc333"/>
    <path id="Polygon_3" data-name="Polygon 3" d="M12.825,0,25.65,20.987H0Z" transform="translate(338.119 179.88) rotate(180)" fill="#ecc333"/>
    <path id="Polygon_7" data-name="Polygon 7" d="M12.825,0,25.65,20.987H0Z" transform="translate(958.393 179.88) rotate(180)" fill="#ecc333"/>
  </g>
</svg>
