<svg xmlns="http://www.w3.org/2000/svg" width="23.442" height="26.132" viewBox="0 0 23.442 26.132">
  <g id="attachment-ico" transform="translate(0 0)">
    <path id="Path_37" data-name="Path 37" d="M17.956,2.443c.25.044.16-.012.3.116l11.2,15.99a6.191,6.191,0,0,1,.889,5.231,6.69,6.69,0,0,1-2.6,3.629,6.3,6.3,0,0,1-8.8-1.5L7.977,10.25a4.719,4.719,0,1,1,7.731-5.414l4.607,6.578h0l3.168,4.524,1.044,1.491.4.565a3.021,3.021,0,0,1-.532,4.4,2.968,2.968,0,0,1-2.352.469A3.276,3.276,0,0,1,19.911,21.5L12.617,11.047a.287.287,0,0,1,.071-.4l1.268-.884a.287.287,0,0,1,.4.071L21.647,20.29a1.165,1.165,0,0,0,.759.483.88.88,0,0,0,.769-.117c.455-.319.449-.822.012-1.446l-.4-.565-1.044-1.491L18.58,12.63h0L13.974,6.051A2.6,2.6,0,0,0,9.713,9.035L20.676,24.692a4.176,4.176,0,0,0,5.849.983,4.292,4.292,0,0,0,1.188-5.91l-11.2-15.99a.287.287,0,0,1,.071-.4l1.266-.887Z" transform="translate(-7.122 -2.443)" fill="#fff"/>
  </g>
</svg>
