<svg xmlns="http://www.w3.org/2000/svg" width="78.149" height="77.905" viewBox="0 0 78.149 77.905">
  <g id="connecting-ico" transform="translate(0.384)">
    <path id="Path_15" data-name="Path 15" d="M30.376,29.305a1.219,1.219,0,0,0,1.327-.28l2.788-2.836,2.788,2.836a1.234,1.234,0,0,0,1.327.28,1.206,1.206,0,0,0,.755-1.132V20.468a8.521,8.521,0,1,0-9.738,0v7.705A1.206,1.206,0,0,0,30.376,29.305Zm6.549-4.1-1.57-1.595a1.265,1.265,0,0,0-1.741,0L32.044,25.2V21.661a8.409,8.409,0,0,0,2.435.353,8.847,8.847,0,0,0,2.435-.353V25.2ZM28.4,13.493a6.086,6.086,0,1,1,6.086,6.086A6.089,6.089,0,0,1,28.4,13.493Z" transform="translate(4.552 -0.14)" fill="#ecc333"/>
    <path id="Path_16" data-name="Path 16" d="M78.745,44.5a1.216,1.216,0,0,0-1.716-.122L62.482,57.048l-.6-.84V56.2L53.73,44.705a.012.012,0,0,1-.012-.012l-.292-.4,25.161-20.3a1.22,1.22,0,1,0-1.534-1.9L51,43.111a1.231,1.231,0,0,0-.231,1.655l.219.3-.986.633a2.846,2.846,0,0,1-2.008.4L37.516,44.194a5.224,5.224,0,0,0-5.088,1.984,7.189,7.189,0,0,0-1.254-.012,4.949,4.949,0,0,1-3.238-.864l-.706-.5A1.225,1.225,0,0,0,27,43.172L2.885,23.574a1.224,1.224,0,0,0-1.546,1.9L24.552,44.364l-.024.037h0L15.922,56.525v.012l-.4.56L2.934,45.849a1.216,1.216,0,0,0-1.619,1.814L14.924,59.811a1.23,1.23,0,0,0,.816.3.5.5,0,0,0,.134-.012,1.2,1.2,0,0,0,.852-.5l.5-.694,2.921,2.045-.463.669a3.256,3.256,0,0,0,.8,4.528h0a3,3,0,0,0,1.108.487,3.253,3.253,0,0,0,1.339,3.1h0a3.209,3.209,0,0,0,1.862.584,3.349,3.349,0,0,0,1.522-.377,3.149,3.149,0,0,0,.84.864,3.183,3.183,0,0,0,1.862.584c.073,0,.146-.024.231-.024a3.292,3.292,0,0,0,1.242,1.777h0a3.21,3.21,0,0,0,1.862.584,3.258,3.258,0,0,0,2.666-1.388l.463-.669,2.934,2.057a3.225,3.225,0,0,0,1.948.645,3.454,3.454,0,0,0,2.824-1.461,3.288,3.288,0,0,0,.45-.9l1.229.864a3.43,3.43,0,0,0,2.568.572,3.392,3.392,0,0,0,2.215-1.412,3.442,3.442,0,0,0,.536-1.181,3.456,3.456,0,0,0,3.384-1.059,3.519,3.519,0,0,0,.816-2.678,3.477,3.477,0,0,0-.536-1.461,3.474,3.474,0,0,0,1.083-1.181,3.333,3.333,0,0,0,.4-1.765l5.307-4.066.645.913a1.2,1.2,0,0,0,.852.5c.049,0,.1.012.146.012a1.246,1.246,0,0,0,.8-.3l15.557-13.56A1.237,1.237,0,0,0,78.745,44.5ZM21.655,63.037l2.215-3.165a.817.817,0,1,1,1.339.937l-.316.45-1.9,2.715a.818.818,0,0,1-1.144.195A.829.829,0,0,1,21.655,63.037Zm2.654,4.723a.818.818,0,0,1-.195-1.144l3.98-5.685a.785.785,0,0,1,.523-.329.815.815,0,0,1,.609.134.785.785,0,0,1,.329.523.815.815,0,0,1-.134.609l-3.98,5.685A.806.806,0,0,1,24.309,67.76Zm4.212,1.083h0a.785.785,0,0,1-.329-.523.815.815,0,0,1,.134-.609l2.215-3.165a.785.785,0,0,1,.523-.329.593.593,0,0,1,.146-.012.775.775,0,0,1,.463.146.785.785,0,0,1,.329.523.815.815,0,0,1-.134.609l-2.215,3.165a.785.785,0,0,1-.523.329A.84.84,0,0,1,28.521,68.844ZM33,70.974a.812.812,0,0,1-1.473-.316.815.815,0,0,1,.134-.609h0l.791-1.12a.816.816,0,0,1,1.132-.195.831.831,0,0,1,.195,1.144Zm19.8-7.693a.989.989,0,0,1-.657.487.963.963,0,0,1-.791-.158l-7.62-5.332a1.216,1.216,0,1,0-1.388,2l7.62,5.332,1.582,1.108a.991.991,0,0,1,.414.694.974.974,0,0,1-.243.779,1.084,1.084,0,0,1-1.424.085l-9.105-6.378a1.216,1.216,0,0,0-1.388,2l7.62,5.332a1,1,0,0,1,.414.645.95.95,0,0,1-.17.743,1,1,0,0,1-1.388.243L38.66,65.52a1.216,1.216,0,0,0-1.388,2l3.7,2.593h0A1,1,0,0,1,41.2,71.5a1,1,0,0,1-1.388.243l-3.433-2.41a3.284,3.284,0,0,0-1.376-2.641,3.5,3.5,0,0,0-.8-.39,3.326,3.326,0,0,0,.231-1.887A3.161,3.161,0,0,0,33.1,62.319a3.24,3.24,0,0,0-1.108-.5,3.056,3.056,0,0,0-.012-1,3.161,3.161,0,0,0-1.339-2.094,3.243,3.243,0,0,0-2.435-.536,3.281,3.281,0,0,0-.949.341,3.372,3.372,0,0,0-.84-.876,3.249,3.249,0,0,0-4.528.8l-.353.5-2.909-2.033,7.194-10.14.718.5a7.233,7.233,0,0,0,4.175,1.29L27.827,52.69a2.358,2.358,0,0,0-.39,1.729,2.31,2.31,0,0,0,.949,1.485,5.167,5.167,0,0,0,7.182-1.266l2.13-3.043,14.68,10.286A1.147,1.147,0,0,1,52.8,63.281ZM54.339,60.4a5.217,5.217,0,0,0-.548-.487l-4.942-3.457a5.113,5.113,0,0,0,2.252-1.8,1.216,1.216,0,1,0-2-1.388,2.771,2.771,0,0,1-3.859.682l-7.145-5a.72.72,0,0,0-.17-.073,1.033,1.033,0,0,0-.268-.11,1.123,1.123,0,0,0-.45-.012h-.024c-.049.012-.085.037-.134.049a1.136,1.136,0,0,0-.3.122,1.293,1.293,0,0,0-.353.329l-2.824,4.041a2.723,2.723,0,0,1-3.676.743l4.382-6.269a2.787,2.787,0,0,1,2.8-1.144l10.481,1.911a5.189,5.189,0,0,0,3.761-.743l1.083-.694,6.8,9.592Z" transform="translate(-1.28 3.523)" fill="#ecc333"/>
    <path id="Path_17" data-name="Path 17" d="M16.187,38.7A1.221,1.221,0,0,0,17.4,37.481V3.435H56.357V37.481a1.217,1.217,0,0,0,2.435,0V2.217A1.221,1.221,0,0,0,57.574,1H16.187A1.221,1.221,0,0,0,14.97,2.217V37.481A1.213,1.213,0,0,0,16.187,38.7Z" transform="translate(2.162 -1)" fill="#ecc333"/>
    <path id="Path_18" data-name="Path 18" d="M51.836,27.97H20.187a1.217,1.217,0,1,0,0,2.435H51.836a1.217,1.217,0,0,0,0-2.435Z" transform="translate(3.031 4.86)" fill="#ecc333"/>
    <path id="Path_19" data-name="Path 19" d="M53.053,33.187a1.221,1.221,0,0,0-1.217-1.217H20.187a1.217,1.217,0,0,0,0,2.435H51.836A1.213,1.213,0,0,0,53.053,33.187Z" transform="translate(3.031 5.729)" fill="#ecc333"/>
    <path id="Path_20" data-name="Path 20" d="M25.187,35.97a1.217,1.217,0,0,0,0,2.435H44.663a1.217,1.217,0,1,0,0-2.435Z" transform="translate(4.117 6.598)" fill="#ecc333"/>
    <path id="Path_21" data-name="Path 21" d="M32.182,15.2a1.2,1.2,0,0,0,.864.353,1.247,1.247,0,0,0,.864-.353l3.652-3.652a1.214,1.214,0,1,0-1.716-1.716l-2.788,2.788L32.34,11.9a1.214,1.214,0,1,0-1.716,1.716Z" transform="translate(5.485 0.842)" fill="#ecc333"/>
  </g>
</svg>
