<svg xmlns="http://www.w3.org/2000/svg" width="82.738" height="82.146" viewBox="0 0 82.738 82.146">
  <g id="education-ico" transform="translate(-140.577 -142.269)">
    <path id="Path_112" data-name="Path 112" d="M159.828,419.535h16.03a1.214,1.214,0,0,0,0-2.427h-.7V407.7a1.213,1.213,0,0,0-1.214-1.214H161.821a1.213,1.213,0,0,0-1.214,1.214v9.407h-.78a1.214,1.214,0,1,0,0,2.427Zm9.265-2.427v-4.046h3.637v4.046Zm3.637-6.47h-3.637v-1.724h3.637Zm-6.061-1.724v1.724h-3.637v-1.724Zm-3.637,4.147h3.637v4.046h-3.637Z" transform="translate(-14.867 -217.788)" fill="#d87967"/>
    <path id="Path_113" data-name="Path 113" d="M176.065,523.273h-.7v-9.411a1.213,1.213,0,0,0-1.214-1.214H162.029a1.213,1.213,0,0,0-1.214,1.214v9.411h-.78a1.214,1.214,0,1,0,0,2.427h16.03a1.214,1.214,0,1,0,0-2.427Zm-3.124-6.47H169.3v-1.727h3.637Zm-6.061-1.727V516.8h-3.637v-1.727Zm-3.637,4.151h3.637v4.046h-3.637Zm6.061,4.046v-4.046h3.637v4.046Z" transform="translate(-15.038 -305.295)" fill="#d87967"/>
    <path id="Path_114" data-name="Path 114" d="M489.828,419.535h16.033a1.214,1.214,0,0,0,0-2.427h-.7V407.7a1.213,1.213,0,0,0-1.214-1.214H491.821a1.213,1.213,0,0,0-1.214,1.214v9.407h-.784a1.214,1.214,0,1,0,0,2.427Zm9.268-2.427v-4.046h3.641v4.046Zm3.641-6.47H499.1v-1.724h3.641Zm-6.065-1.724v1.724h-3.637v-1.724Zm-3.637,4.147h3.637v4.046h-3.637Z" transform="translate(-286.875 -217.788)" fill="#d87967"/>
    <path id="Path_115" data-name="Path 115" d="M506.119,523.273h-.7v-9.411a1.213,1.213,0,0,0-1.214-1.214H492.079a1.213,1.213,0,0,0-1.214,1.214v9.411h-.78a1.214,1.214,0,1,0,0,2.427h16.033a1.214,1.214,0,1,0,0-2.427Zm-3.127-6.47h-3.641v-1.727h3.641Zm-6.065-1.727V516.8h-3.637v-1.727Zm-3.634,4.151h3.637v4.046h-3.637Zm6.061,4.046v-4.046h3.641v4.046Z" transform="translate(-287.09 -305.295)" fill="#d87967"/>
    <path id="Path_116" data-name="Path 116" d="M299.3,336.447h24.951a1.214,1.214,0,0,0,0-2.427h-1.827V318.708a1.213,1.213,0,0,0-1.214-1.214H302.344a1.213,1.213,0,0,0-1.214,1.214v15.316H299.3a1.212,1.212,0,1,0,0,2.424Zm13.686-2.424v-7.646H320v7.646ZM320,323.951h-7.011v-4.033H320Zm-9.439-4.033v4.033h-7.011v-4.033Zm-7.011,6.46h7.008v7.646h-7.008Z" transform="translate(-129.833 -144.434)" fill="#d87967"/>
    <path id="Path_117" data-name="Path 117" d="M157.1,170.758h5.566v13.121h-20.7a1.389,1.389,0,0,0-1.387,1.387v37.761a1.389,1.389,0,0,0,1.387,1.387h79.963a1.389,1.389,0,0,0,1.387-1.387V185.266a1.389,1.389,0,0,0-1.387-1.387H201.221V170.758h5.566a1.389,1.389,0,0,0,1.387-1.387V159.43a1.389,1.389,0,0,0-1.387-1.387h-23.45v-3.589h10.791a1.389,1.389,0,0,0,1.387-1.387v-9.41a1.389,1.389,0,0,0-1.387-1.387H181.949a1.389,1.389,0,0,0-1.387,1.387v14.39H157.1a1.389,1.389,0,0,0-1.387,1.387v9.938a1.392,1.392,0,0,0,1.387,1.387Zm35.635-19.082h-9.4v-6.634h9.4Zm-49.384,34.98h19.317v34.983H143.354Zm49.89,10.2v24.782H183.157V196.853Zm-12.511,24.786H170.65V196.856h10.084Zm39.807-34.983v34.983H201.223V186.656Zm-22.094-1.54a.375.375,0,0,0,0,.3v36.22h-2.777V195.639a1.213,1.213,0,0,0-1.214-1.214h-25.02a1.213,1.213,0,0,0-1.214,1.214v25.995h-2.774V170.755h33v14.359Zm-39.953-24.3H205.4v7.16H158.494Z" fill="#d87967"/>
    <path id="Path_118" data-name="Path 118" d="M360.328,519.613a.922.922,0,0,1-1.844,0,.922.922,0,1,1,1.844,0" transform="translate(-179.615 -310.275)" fill="#d87967"/>
    <path id="Path_119" data-name="Path 119" d="M384.868,519.613a.922.922,0,0,1-1.844,0,.922.922,0,1,1,1.844,0" transform="translate(-199.843 -310.275)" fill="#d87967"/>
  </g>
</svg>
