<svg xmlns="http://www.w3.org/2000/svg" xmlns:xlink="http://www.w3.org/1999/xlink" width="84.162" height="76.417" viewBox="0 0 84.162 76.417">
  <defs>
    <clipPath id="clip-path">
      <path id="Path_50" data-name="Path 50" d="M139.21,161h84.162v76.417H139.21Z" fill="#fff"/>
    </clipPath>
  </defs>
  <g id="f-b-ico-hover" transform="translate(-139.21 -161)" clip-path="url(#clip-path)">
    <path id="Path_49" data-name="Path 49" d="M187.868,174.8v-.242a6.587,6.587,0,0,0-5.26-6.444v-1.447a1.315,1.315,0,0,0-2.63,0v1.447a6.587,6.587,0,0,0-5.26,6.444v.242a3.945,3.945,0,0,0-2.63,3.7v1.316a1.315,1.315,0,0,0,1.315,1.315h15.781a1.315,1.315,0,0,0,1.316-1.315V178.5a3.945,3.945,0,0,0-2.63-3.7Zm-6.575-4.187a3.945,3.945,0,0,1,3.945,3.945h-7.89a3.946,3.946,0,0,1,3.945-3.945Zm-6.575,7.89h0a1.315,1.315,0,0,1,1.315-1.315h10.521a1.315,1.315,0,0,1,1.315,1.315Zm-2.63-7.89h0a2.631,2.631,0,0,1-2.63,2.63h-1.315v6.575a1.315,1.315,0,0,1-2.63,0v-6.575H164.2a2.63,2.63,0,0,1-2.63-2.63v-3.945a1.315,1.315,0,0,1,2.63,0v3.945h1.315v-3.945a1.315,1.315,0,0,1,2.63,0v3.945h1.315v-3.945a1.315,1.315,0,0,1,2.63,0Zm23.672-5.26a5.624,5.624,0,0,0-5.26,5.917,5.822,5.822,0,0,0,3.945,5.708v2.841a1.315,1.315,0,0,0,2.63,0v-2.841a5.825,5.825,0,0,0,3.945-5.708,5.624,5.624,0,0,0-5.26-5.917Zm0,9.205a3.025,3.025,0,1,1,1.981-1.111A3.024,3.024,0,0,1,195.758,174.558Zm-14.466,48.656H199.7a1.315,1.315,0,0,0,1.315-1.315v-13.15a1.315,1.315,0,0,0-1.315-1.316H181.293a1.315,1.315,0,0,0-1.315,1.315V221.9a1.315,1.315,0,0,0,1.315,1.315Zm1.315-13.15h15.781v10.521h-2.63v-1.316a1.315,1.315,0,1,0,0-2.63h-2.63a1.315,1.315,0,1,0,0,2.63v1.315h-5.26v-1.316a1.315,1.315,0,1,0,0-2.63h-2.63a1.315,1.315,0,0,0,0,2.63v1.315h-2.63Zm-9.205,6.575v1.315a1.315,1.315,0,1,1-2.63,0v-1.315a1.315,1.315,0,1,1,2.63,0Zm-32.875,15.78h81.532a1.315,1.315,0,1,0,0-2.63h-15.78V199.509a6.544,6.544,0,0,0,2.63-5.226v-1.315q-.041-.26-.106-.514l-3.839-8.954V162.722a1.315,1.315,0,0,0-1.315-1.315H158.937a1.315,1.315,0,0,0-1.315,1.315V183.5l-3.839,8.956c-.022.05-.106.487-.106.513v1.315a6.544,6.544,0,0,0,2.63,5.226v30.279H140.527a1.315,1.315,0,0,0,0,2.63Zm23.672-2.63V210.064h10.521v19.726Zm38.136-31.56a3.944,3.944,0,0,1-3.945-3.945h7.89a3.945,3.945,0,0,1-3.945,3.945Zm-46.026-3.945h7.89a3.945,3.945,0,1,1-7.89,0Zm3.5-9.205H166.4l-1.878,6.575h-7.535Zm45.8,6.575h-7.534l-1.879-6.575h6.595Zm-12.15-6.575,1.879,6.575H187.7l-.94-6.575Zm-9.354,0,.94,6.575h-7.488l.939-6.575Zm-9.205,6.575h-7.635l1.878-6.575h6.7Zm-.174,2.63a3.945,3.945,0,1,1-7.89,0Zm10.521,0h0a3.945,3.945,0,1,1-7.89,0Zm10.521,0h0a3.945,3.945,0,1,1-7.89,0Zm-35.507-30.245h42.081v18.409H160.253Zm-1.315,36.689a6.523,6.523,0,0,0,6.575-2.538,6.515,6.515,0,0,0,10.521,0,6.515,6.515,0,0,0,10.521,0,6.514,6.514,0,0,0,10.52,0,6.525,6.525,0,0,0,6.575,2.538v29.063h-26.3v-21.04a1.314,1.314,0,0,0-1.315-1.315h-13.15a1.315,1.315,0,0,0-1.315,1.315v21.04h-2.63Zm64.438,35.637a1.315,1.315,0,0,1-1.315,1.316H140.529a1.315,1.315,0,0,1,0-2.63h81.532a1.315,1.315,0,0,1,1.315,1.315Z" transform="translate(-0.001 -0.335)" fill="#fff"/>
  </g>
</svg>
