<svg xmlns="http://www.w3.org/2000/svg" width="42.857" height="50" viewBox="0 0 42.857 50">
  <g id="focused-ico" transform="translate(-19.999 -967.362)">
    <path id="Path_44" data-name="Path 44" d="M45.582,967.363a1.48,1.48,0,0,0-1.295,1.429v4.286H21.429A1.479,1.479,0,0,0,20,974.35c0,1.466,0,2.965,0,4.442a1.485,1.485,0,0,0,1.429,1.429H44.287v4.286a1.485,1.485,0,0,0,1.429,1.429h7.143a1.485,1.485,0,0,0,1.429-1.429V968.792a1.485,1.485,0,0,0-1.429-1.429H45.716Q45.649,967.36,45.582,967.363Zm1.563,2.857h4.286v12.857H47.145C47.146,978.786,47.145,974.511,47.145,970.22Zm-24.287,5.714h21.43v1.428H22.857Zm.58,12.857a1.48,1.48,0,0,0-1.295,1.429v10.714a1.485,1.485,0,0,0,1.429,1.429h5a3.571,3.571,0,1,1,0,7.143H26.429a1.453,1.453,0,0,0-1.25.714l-2.857,5a1.506,1.506,0,0,0,1.25,2.143H52.859a1.5,1.5,0,0,0,1.317-2.009l-2.143-5a1.463,1.463,0,0,0-1.317-.848H48.573a2.143,2.143,0,1,1,0-4.286H55a1.454,1.454,0,0,0,1.183-.625l6.429-9.285a1.429,1.429,0,0,0-1.183-2.232H55V990.22a1.485,1.485,0,0,0-1.429-1.429H23.438ZM25,991.648H52.145v2.857a1.485,1.485,0,0,0,1.429,1.428h5.112l-4.442,6.429h-5.67a5,5,0,1,0,0,10h1.205l.915,2.143H26.027l1.228-2.143h1.317a6.428,6.428,0,1,0,0-12.857H25v-3.571H48.573a1.429,1.429,0,1,0,0-2.857H25Z" transform="translate(0 0)" fill="#fff"/>
  </g>
</svg>
