<svg xmlns="http://www.w3.org/2000/svg" width="79.999" height="80" viewBox="0 0 79.999 80">
  <g id="healthcare-ico-hover" transform="translate(-146.611 -146.612)">
    <path id="Path_105" data-name="Path 105" d="M225.32,216.29h-1.29V158.225a1.289,1.289,0,0,0-1.29-1.29H211.127V147.9a1.289,1.289,0,0,0-1.29-1.29H163.385a1.289,1.289,0,0,0-1.29,1.29v9.032H150.481a1.289,1.289,0,0,0-1.29,1.29V216.29H147.9a1.289,1.289,0,0,0-1.29,1.29v7.742a1.289,1.289,0,0,0,1.29,1.29H225.32a1.289,1.289,0,0,0,1.29-1.29V217.58a1.289,1.289,0,0,0-1.29-1.29Zm-3.871,0h-2.581V164.677h2.581Zm0-56.775V162.1h-3.871a1.289,1.289,0,0,0-1.29,1.29v52.9h-5.161V159.516Zm-12.9-10.323v67.1H164.675v-67.1Zm-46.452,10.323V216.29h-5.161v-52.9a1.289,1.289,0,0,0-1.29-1.29h-3.871v-2.581Zm-10.322,5.161h2.581V216.29h-2.581Zm72.257,59.355H149.192v-5.161H224.03Z" fill="#fff"/>
    <path id="Path_106" data-name="Path 106" d="M356.38,213.553h2.581v-2.581h2.58v-2.58h-2.58v-2.581H356.38v2.581H353.8v2.58h2.581Z" transform="translate(-171.06 -48.876)" fill="#fff"/>
    <path id="Path_107" data-name="Path 107" d="M333.235,194.27a9.032,9.032,0,1,0-9.032-9.032A9.044,9.044,0,0,0,333.235,194.27Zm0-15.484a6.452,6.452,0,1,1-6.452,6.452A6.459,6.459,0,0,1,333.235,178.786Z" transform="translate(-146.624 -24.433)" fill="#fff"/>
    <path id="Path_108" data-name="Path 108" d="M266.3,312.67h15.484a1.289,1.289,0,0,0,1.29-1.29V295.9a1.289,1.289,0,0,0-1.29-1.29H266.3a1.289,1.289,0,0,0-1.29,1.29V311.38A1.288,1.288,0,0,0,266.3,312.67Zm14.193-2.58h-5.161v-12.9h5.161Zm-12.9-12.9h5.161v12.9h-5.161Z" transform="translate(-97.754 -122.188)" fill="#fff"/>
    <path id="Path_109" data-name="Path 109" d="M383.4,295.892v15.484a1.289,1.289,0,0,0,1.29,1.29h15.484a1.289,1.289,0,0,0,1.29-1.29V295.892a1.289,1.289,0,0,0-1.29-1.29H384.69A1.289,1.289,0,0,0,383.4,295.892Zm15.484,14.194h-5.161v-12.9h5.161Zm-12.9-12.9h5.161v12.9H385.98Z" transform="translate(-195.499 -122.184)" fill="#fff"/>
    <path id="Path_110" data-name="Path 110" d="M266.3,431.067h15.484a1.289,1.289,0,0,0,1.29-1.29V414.292a1.289,1.289,0,0,0-1.29-1.29H266.3a1.289,1.289,0,0,0-1.29,1.29v15.484a1.289,1.289,0,0,0,1.29,1.291Zm14.193-2.581h-5.161v-12.9h5.161Zm-12.9-12.9h5.161v12.9h-5.161Z" transform="translate(-97.754 -219.938)" fill="#fff"/>
    <path id="Path_111" data-name="Path 111" d="M400.179,413H384.695a1.289,1.289,0,0,0-1.29,1.29v15.484a1.289,1.289,0,0,0,1.29,1.29h15.484a1.289,1.289,0,0,0,1.29-1.29V414.29A1.289,1.289,0,0,0,400.179,413Zm-14.194,2.581h5.161v12.9h-5.161Zm12.9,12.9h-5.161v-12.9h5.161Z" transform="translate(-195.503 -219.936)" fill="#fff"/>
  </g>
</svg>
