<svg xmlns="http://www.w3.org/2000/svg" width="104.594" height="104.417" viewBox="0 0 104.594 104.417">
  <g id="hotels-ico" transform="translate(-161.37 -161.733)">
    <path id="Path_59" data-name="Path 59" d="M273.14,579.18h51.521v2.7H273.14Z" transform="translate(-84.536 -315.734)" fill="#d87967"/>
    <path id="Path_60" data-name="Path 60" d="M228.09,554.9h3.992v2.7H228.09Z" transform="translate(-50.463 -297.37)" fill="#d87967"/>
    <path id="Path_61" data-name="Path 61" d="M512.39,555.24h3.993v2.7H512.39Z" transform="translate(-265.492 -297.627)" fill="#d87967"/>
    <path id="Path_62" data-name="Path 62" d="M313.488,279.978h-8.025v-8.026h8.025Zm-5.322-2.705h2.616v-2.616h-2.616Z" transform="translate(-108.983 -83.363)" fill="#d87967"/>
    <path id="Path_63" data-name="Path 63" d="M369.958,279.978h-8.026v-8.026h8.026Zm-5.32-2.705h2.616v-2.616h-2.616Z" transform="translate(-151.694 -83.363)" fill="#d87967"/>
    <path id="Path_64" data-name="Path 64" d="M424.058,279.978h-8.026v-8.026h8.026Zm-5.321-2.705h2.616v-2.616h-2.616Z" transform="translate(-192.612 -83.363)" fill="#d87967"/>
    <path id="Path_65" data-name="Path 65" d="M314.678,374.645h-8.026v-8.026h8.026Zm-5.321-2.705h2.616v-2.616h-2.616Z" transform="translate(-109.883 -154.964)" fill="#d87967"/>
    <path id="Path_66" data-name="Path 66" d="M369.958,374.645h-8.026v-8.026h8.026Zm-5.32-2.705h2.616v-2.616h-2.616Z" transform="translate(-151.694 -154.964)" fill="#d87967"/>
    <path id="Path_67" data-name="Path 67" d="M425.248,374.645h-8.026v-8.026h8.026Zm-5.321-2.705h2.616v-2.616h-2.616Z" transform="translate(-193.512 -154.964)" fill="#d87967"/>
    <path id="Path_68" data-name="Path 68" d="M314.678,421.978h-8.026v-8.026h8.026Zm-5.321-2.7h2.616v-2.616h-2.616Z" transform="translate(-109.883 -190.764)" fill="#d87967"/>
    <path id="Path_69" data-name="Path 69" d="M369.958,421.978h-8.026v-8.026h8.026Zm-5.32-2.7h2.616v-2.616h-2.616Z" transform="translate(-151.694 -190.764)" fill="#d87967"/>
    <path id="Path_70" data-name="Path 70" d="M425.248,421.978h-8.026v-8.026h8.026Zm-5.321-2.7h2.616v-2.616h-2.616Z" transform="translate(-193.512 -190.764)" fill="#d87967"/>
    <path id="Path_71" data-name="Path 71" d="M313.488,327.308h-8.025v-8.026h8.025Zm-5.322-2.7h2.616v-2.616h-2.616Z" transform="translate(-108.983 -119.161)" fill="#d87967"/>
    <path id="Path_72" data-name="Path 72" d="M369.958,327.308h-8.026v-8.026h8.026Zm-5.32-2.7h2.616v-2.616h-2.616Z" transform="translate(-151.694 -119.161)" fill="#d87967"/>
    <path id="Path_73" data-name="Path 73" d="M424.058,327.308h-8.026v-8.026h8.026Zm-5.321-2.7h2.616v-2.616h-2.616Z" transform="translate(-192.612 -119.161)" fill="#d87967"/>
    <path id="Path_74" data-name="Path 74" d="M513.52,394.01h3.1v3.1h-3.1Z" transform="translate(-266.346 -175.681)" fill="#d87967"/>
    <path id="Path_75" data-name="Path 75" d="M537.34,394.01h3.1v3.1h-3.1Z" transform="translate(-284.363 -175.681)" fill="#d87967"/>
    <path id="Path_76" data-name="Path 76" d="M489.7,394.01h3.1v3.1h-3.1Z" transform="translate(-248.33 -175.681)" fill="#d87967"/>
    <path id="Path_77" data-name="Path 77" d="M513.52,417.71h3.1v3.1h-3.1Z" transform="translate(-266.346 -193.607)" fill="#d87967"/>
    <path id="Path_78" data-name="Path 78" d="M537.34,417.71h3.1v3.1h-3.1Z" transform="translate(-284.363 -193.607)" fill="#d87967"/>
    <path id="Path_79" data-name="Path 79" d="M489.7,417.71h3.1v3.1h-3.1Z" transform="translate(-248.33 -193.607)" fill="#d87967"/>
    <path id="Path_80" data-name="Path 80" d="M513.52,441.4h3.1v3.1h-3.1Z" transform="translate(-266.346 -211.525)" fill="#d87967"/>
    <path id="Path_81" data-name="Path 81" d="M537.34,441.4h3.1v3.1h-3.1Z" transform="translate(-284.363 -211.525)" fill="#d87967"/>
    <path id="Path_82" data-name="Path 82" d="M489.7,441.4h3.1v3.1h-3.1Z" transform="translate(-248.33 -211.525)" fill="#d87967"/>
    <path id="Path_83" data-name="Path 83" d="M228.09,394.01h3.1v3.1h-3.1Z" transform="translate(-50.463 -175.681)" fill="#d87967"/>
    <path id="Path_84" data-name="Path 84" d="M251.9,394.01H255v3.1h-3.1Z" transform="translate(-68.472 -175.681)" fill="#d87967"/>
    <path id="Path_85" data-name="Path 85" d="M204.27,394.01h3.1v3.1h-3.1Z" transform="translate(-32.447 -175.681)" fill="#d87967"/>
    <path id="Path_86" data-name="Path 86" d="M228.09,417.71h3.1v3.1h-3.1Z" transform="translate(-50.463 -193.607)" fill="#d87967"/>
    <path id="Path_87" data-name="Path 87" d="M251.9,417.71H255v3.1h-3.1Z" transform="translate(-68.472 -193.607)" fill="#d87967"/>
    <path id="Path_88" data-name="Path 88" d="M204.27,417.71h3.1v3.1h-3.1Z" transform="translate(-32.447 -193.607)" fill="#d87967"/>
    <path id="Path_89" data-name="Path 89" d="M228.09,441.4h3.1v3.1h-3.1Z" transform="translate(-50.463 -211.525)" fill="#d87967"/>
    <path id="Path_90" data-name="Path 90" d="M251.9,441.4H255v3.1h-3.1Z" transform="translate(-68.472 -211.525)" fill="#d87967"/>
    <path id="Path_91" data-name="Path 91" d="M204.27,441.4h3.1v3.1h-3.1Z" transform="translate(-32.447 -211.525)" fill="#d87967"/>
    <path id="Path_92" data-name="Path 92" d="M340.862,479.769h-3.329v-6.653h-2.7v6.653h-1.778V468.458h4.483V461.3H306.117v7.161H310.6v11.311h-1.778v-5.586h-2.7v5.586h-2.141v2.7H310.6v4.991h2.7v-4.991h17.042v4.991h2.7v-4.991h7.812Zm-16.1,0h-5.885v-6.785h5.885Zm5.578,0h-2.874v-9.49H316.177v9.49H313.3V468.458h17.042ZM308.82,465.753V464h26.008v1.752Z" transform="translate(-107.86 -226.574)" fill="#d87967"/>
    <path id="Path_93" data-name="Path 93" d="M193.647,408.531a5.391,5.391,0,0,0,4.372-5.287,21.381,21.381,0,0,0-1.258-5.963c-1.131-3.19-2.479-4.742-4.125-4.742s-3,1.551-4.125,4.742a21.373,21.373,0,0,0-1.258,5.963,5.353,5.353,0,0,0,.795,2.812h-1.715V392.529H172.972v13.527h-3.788v-33.7h16.4v-2.7h-19.1v36.407H161.37v2.7h29.572v6.08H184.98v2.7h11.688v-2.7h-3.021Zm-10.019-2.477H181V398.5h-2.7v7.554h-2.624V395.232h7.952Zm6.33-2.811a18.7,18.7,0,0,1,.973-4.678c.733-2.212,1.426-3.074,1.707-3.285.281.211.974,1.075,1.707,3.285a18.746,18.746,0,0,1,.973,4.678,2.679,2.679,0,1,1-5.358,0Z" transform="translate(0 -157.255)" fill="#d87967"/>
    <path id="Path_94" data-name="Path 94" d="M347.846,310.576V274.169H325.076l-.069-30.759H275.7l-.111,49.786,2.7.006.106-47.089h43.907l.106,47.089,1.353,0h1.353V276.872h20.022v33.7H342.27V297.048H328.909v13.527h-1.833a5.35,5.35,0,0,0,.795-2.812,21.375,21.375,0,0,0-1.258-5.963c-1.131-3.19-2.479-4.742-4.125-4.742s-2.994,1.551-4.125,4.742a21.373,21.373,0,0,0-1.258,5.963,5.392,5.392,0,0,0,4.031,5.211v6.358H318.24v2.7h11.688v-2.7h-6.089V313.28h28.517v-2.7Zm-25.357-.132a2.683,2.683,0,0,1-2.679-2.679,18.7,18.7,0,0,1,.973-4.678c.733-2.212,1.426-3.074,1.707-3.285.281.212.974,1.075,1.707,3.285a18.745,18.745,0,0,1,.973,4.678,2.683,2.683,0,0,1-2.679,2.679Zm11.75-7.422v7.554h-2.624V299.753h7.952v10.823h-2.623v-7.554Z" transform="translate(-86.391 -61.776)" fill="#d87967"/>
    <path id="Path_95" data-name="Path 95" d="M355.718,179.466a1.525,1.525,0,0,1-.71-.176l-4.062-2.136-4.062,2.136a1.524,1.524,0,0,1-2.211-1.606l.776-4.524-3.286-3.2a1.524,1.524,0,0,1,.844-2.6l4.543-.661,2.031-4.116a1.514,1.514,0,0,1,1.367-.849h0a1.512,1.512,0,0,1,1.365.849l2.031,4.116,4.542.661a1.524,1.524,0,0,1,.843,2.6l-3.286,3.2.776,4.524a1.525,1.525,0,0,1-1.5,1.783Zm-5.322-2.6.009,0Zm1.1,0,0,0Zm-.553-2.568a1.532,1.532,0,0,1,.715.178l2.49,1.309L353.672,173a1.524,1.524,0,0,1,.439-1.35l2.017-1.966-2.789-.405a1.525,1.525,0,0,1-1.146-.831l-1.248-2.529L349.7,168.45a1.523,1.523,0,0,1-1.147.834l-2.79.405,2.018,1.967a1.519,1.519,0,0,1,.438,1.352l-.476,2.774,2.495-1.312a1.512,1.512,0,0,1,.708-.176Zm-5.055-.705.007.007Zm10.11,0,0,0Zm-10.447-1.044a.007.007,0,0,1,0,0Zm1.721-5.3s0,0,0,0Z" transform="translate(-136.392)" fill="#d87967"/>
    <path id="Path_96" data-name="Path 96" d="M428.314,187.332a1.642,1.642,0,0,1-1.614-1.917l.424-2.47-1.794-1.748a1.638,1.638,0,0,1,.908-2.794l2.479-.361,1.109-2.247a1.639,1.639,0,0,1,2.939,0l1.109,2.247,2.48.361a1.638,1.638,0,0,1,.907,2.794l-1.794,1.748.424,2.47a1.639,1.639,0,0,1-2.378,1.727l-2.218-1.166-2.218,1.166a1.633,1.633,0,0,1-.762.19Zm2.982-4.2a1.644,1.644,0,0,1,.763.188l.8.422-.153-.893a1.635,1.635,0,0,1,.471-1.45l.649-.633-.9-.13a1.64,1.64,0,0,1-1.233-.894l-.4-.815-.4.812a1.644,1.644,0,0,1-1.234.9l-.9.13.648.632a1.637,1.637,0,0,1,.471,1.452l-.153.891.8-.422a1.623,1.623,0,0,1,.762-.188Zm-4.076-.74v0Zm8.153,0v0Zm-5.032-5.4h0Z" transform="translate(-199.268 -9.945)" fill="#d87967"/>
    <path id="Path_97" data-name="Path 97" d="M491.5,187.329a1.642,1.642,0,0,1-1.613-1.917l.424-2.47-1.8-1.749a1.638,1.638,0,0,1,.909-2.794l2.479-.361,1.109-2.247a1.629,1.629,0,0,1,1.47-.913h0a1.627,1.627,0,0,1,1.469.914l1.109,2.246,2.48.361a1.638,1.638,0,0,1,.907,2.794l-1.794,1.749.424,2.47a1.638,1.638,0,0,1-2.378,1.727l-2.217-1.165-2.219,1.166a1.657,1.657,0,0,1-.764.189Zm.451-6.564.648.632a1.636,1.636,0,0,1,.471,1.45l-.153.894.8-.422a1.639,1.639,0,0,1,1.525,0l.8.422-.153-.893a1.64,1.64,0,0,1,.471-1.45l.649-.633-.9-.13a1.638,1.638,0,0,1-1.234-.9l-.4-.812-.4.812a1.636,1.636,0,0,1-1.233.9Zm-1.24,2.568,0,0Zm2.814-6.345h0Z" transform="translate(-247.057 -9.942)" fill="#d87967"/>
    <path id="Path_98" data-name="Path 98" d="M220.083,187.329a1.642,1.642,0,0,1-1.614-1.917l.424-2.47-1.8-1.749a1.638,1.638,0,0,1,.909-2.794l2.479-.361,1.109-2.247a1.638,1.638,0,0,1,2.938,0l1.109,2.246,2.48.361a1.638,1.638,0,0,1,.907,2.794l-1.794,1.749.424,2.47a1.639,1.639,0,0,1-2.378,1.727l-2.217-1.166-2.218,1.166a1.633,1.633,0,0,1-.762.19Zm.451-6.564.648.632a1.636,1.636,0,0,1,.471,1.45l-.153.894.8-.422a1.637,1.637,0,0,1,1.524,0l.8.422-.153-.893a1.64,1.64,0,0,1,.471-1.45l.649-.633-.9-.13a1.638,1.638,0,0,1-1.233-.9l-.4-.812-.4.812a1.636,1.636,0,0,1-1.234.9Zm-1.24,2.568,0,0Zm2.814-6.345h0Z" transform="translate(-41.774 -9.942)" fill="#d87967"/>
    <path id="Path_99" data-name="Path 99" d="M283.263,187.329a1.642,1.642,0,0,1-1.614-1.917l.424-2.47-1.8-1.749a1.638,1.638,0,0,1,.909-2.794l2.479-.361,1.109-2.247a1.628,1.628,0,0,1,1.469-.913h0a1.628,1.628,0,0,1,1.469.913l1.109,2.247,2.48.361a1.638,1.638,0,0,1,.907,2.794l-1.794,1.749.424,2.47a1.639,1.639,0,0,1-2.379,1.727l-2.217-1.165-2.218,1.166a1.644,1.644,0,0,1-.762.189Zm2.982-4.2a1.634,1.634,0,0,1,.762.188l.8.422-.153-.893a1.638,1.638,0,0,1,.472-1.451l.647-.631-.9-.13a1.636,1.636,0,0,1-1.234-.9l-.4-.812-.4.812a1.636,1.636,0,0,1-1.234.9l-.9.13.648.632a1.635,1.635,0,0,1,.471,1.45l-.153.894.8-.422a1.65,1.65,0,0,1,.764-.188Zm3.771.2,0,0Zm-4.727-6.343h0Z" transform="translate(-89.56 -9.942)" fill="#d87967"/>
  </g>
</svg>
