<?xml version="1.0" encoding="utf-8"?>
<!-- Generator: Adobe Illustrator 17.0.0, SVG Export Plug-In . SVG Version: 6.00 Build 0)  -->
<!DOCTYPE svg PUBLIC "-//W3C//DTD SVG 1.1//EN" "http://www.w3.org/Graphics/SVG/1.1/DTD/svg11.dtd">
<svg version="1.1" id="tcfc_logo" xmlns="http://www.w3.org/2000/svg" xmlns:xlink="http://www.w3.org/1999/xlink" x="0px" y="0px"
	 width="112.794px" height="39.804px" viewBox="0 0 112.794 39.804" enable-background="new 0 0 112.794 39.804"
	 xml:space="preserve">
<g>
	<path fill="#394C9F" d="M24.02,36.062c-0.292,0.164-1.056,0.448-1.282,0.508c-1.627,0.418-3.247,0.901-4.909,1.168
		c-2.585,0.418-5.18,0.325-7.676-0.499c-1.003-0.331-1.872-0.76-2.619-1.28C5.76,34.721,4.696,32.96,4.323,30.72
		c-0.168-1.012-0.198-2.05-0.206-3.075c-0.027-3.211-0.022-6.423,0-9.635c0.003-0.522-0.148-0.711-0.754-0.685
		c-1.091,0.044-2.187,0.012-3.307,0.012c-0.137-0.852-0.058-1.53,0.619-2.196c1.12-1.106,2.233-2.681,3.345-3.795
		c0.161-0.16,0.321-0.321,0.481-0.481c2.337-2.343,4.661-5.623,6.983-7.979c0.411-0.418,0.865-0.425,1.473-0.367v9.406h6.088
		c-0.804,1.744-1.353,3.546-1.647,5.393h-4.429v0.855c0.002,3.293,0.006,6.585,0,9.877c-0.003,2.596,1.849,4.173,4.728,4.044
		c0.27-0.013,0.539-0.037,0.806-0.061c0.536-0.06,1.6-0.234,2.119-0.353c0.495,1.097,1.405,2.443,2.357,3.452
		C23.269,35.442,24.02,36.062,24.02,36.062"/>
	<path fill="#87C040" d="M44.325,18.808c0.609,2.841-1.202,5.639-4.044,6.247c-2.839,0.606-5.636-1.203-6.244-4.045
		c-0.607-2.839,1.202-5.636,4.044-6.244C40.922,14.158,43.718,15.968,44.325,18.808"/>
	<path fill="#59595B" d="M81.433,2.552c-0.067-0.081-0.148-0.123-0.248-0.123H70.397c-2.481,0-4.54,0.218-6.179,0.652
		c-1.638,0.436-3.054,1.13-4.244,2.084h-0.05c-0.861,0.707-1.647,1.566-2.358,2.584c-0.129,0.183-0.254,0.376-0.375,0.566
		c2.379,3.32,3.785,7.388,3.785,11.782c0,6.096-2.698,11.562-6.96,15.277c-1.917,1.491-4.51,2.672-4.51,2.672l4.858-0.092
		c0.202-0.009,0.416-0.03,0.635-0.054h8.023v-0.949v-2.657v-4.187c0.031-0.498,0.052-0.991,0.052-1.485v-4.816h8.531l3.939-0.057
		c-0.195-1.161-0.299-2.349-0.299-3.558c0-1.433,0.138-2.838,0.41-4.2H63.52c0.33-1.285,0.876-2.302,1.638-3.049
		c1.391-1.327,2.359-1.991,5.835-1.991h3.093c1.025,0,2.061-0.114,3.103-0.342c0.144-0.031,0.284-0.071,0.423-0.117
		c0.864-0.281,1.625-0.832,2.283-1.658c0.661-0.869,1.091-1.854,1.29-2.954c0.016-0.09,0.029-0.175,0.044-0.261
		c0.169-0.994,0.272-1.895,0.302-2.695V2.863C81.532,2.698,81.499,2.596,81.433,2.552"/>
	<path fill="#59595B" d="M48.035,23.991c-0.251,0.747-0.577,1.433-0.98,2.054c-1.253,1.94-3.222,3.248-5.816,3.801
		c-5.703,1.222-10.56-2.006-11.811-7.85c-1.251-5.845,1.86-10.778,7.564-12c3.043-0.65,5.739,0.039,7.785,1.904
		c0.239,0.218,0.462,0.455,0.681,0.703l6.764-5.449c-1.358-1.407-2.948-2.559-4.717-3.407C43.958,2.045,39.73,1.527,35.38,2.461
		c-10.471,2.24-16.76,11.435-14.63,21.392c2.13,9.957,11.633,15.772,22.104,13.531c3.485-0.744,6.504-2.278,8.863-4.369
		c1.523-1.348,2.769-2.928,3.689-4.682c0.442-0.841,0.804-1.722,1.09-2.634l-0.638-0.3L48.035,23.991z"/>
	<path fill="#394C9F" d="M104.919,26.079c-0.403,0.676-0.865,1.282-1.388,1.802c-1.633,1.639-3.83,2.504-6.484,2.504
		c-5.833,0-9.907-4.173-9.907-10.148c0-5.978,4.074-10.152,9.907-10.152c3.112,0,5.604,1.239,7.216,3.491
		c0.185,0.262,0.356,0.541,0.518,0.83l7.755-3.914c-1.034-1.659-2.349-3.117-3.899-4.317c-3.113-2.407-7.14-3.798-11.59-3.798
		c-10.708,0-18.782,7.677-18.782,17.86c0,10.179,8.073,17.858,18.782,17.858c3.564,0,6.836-0.87,9.582-2.421
		c1.771-0.998,3.32-2.285,4.588-3.806c0.607-0.731,1.146-1.519,1.616-2.349l-0.559-0.426L104.919,26.079z"/>
</g>
</svg>
