<svg xmlns="http://www.w3.org/2000/svg" width="32.947" height="42.411" viewBox="0 0 32.947 42.411">
  <g id="perfection-ico" transform="translate(-13.1 -2.4)">
    <path id="Path_47" data-name="Path 47" d="M45.645,11.73,36.716,2.8a1.285,1.285,0,0,0-.938-.4H14.439A1.315,1.315,0,0,0,13.1,3.739V43.472a1.315,1.315,0,0,0,1.339,1.339H44.708a1.315,1.315,0,0,0,1.339-1.339v-30.8A1.361,1.361,0,0,0,45.645,11.73ZM36.091,5.971,42.52,12.4H36.091ZM15.779,42.177V5.123H33.413v8.616a1.315,1.315,0,0,0,1.339,1.339h8.616v27.1Z" fill="#fff"/>
    <path id="Path_48" data-name="Path 48" d="M47,42.005l-7.813-3.571a1.23,1.23,0,0,0-1.116,0l-7.813,3.571a1.316,1.316,0,0,0-.759,1.205v9.42a1.344,1.344,0,0,0,.759,1.205l7.813,3.571a1.138,1.138,0,0,0,1.071,0l7.813-3.571a1.316,1.316,0,0,0,.759-1.205v-9.42A1.171,1.171,0,0,0,47,42.005Zm-8.348-.893,4.6,2.1-4.6,2.1-4.6-2.1Zm-6.473,4.2,5.134,2.321V54.1l-5.134-2.321ZM39.991,54.1V47.63l5.134-2.321v6.473Z" transform="translate(-9.078 -19.873)" fill="#fff"/>
  </g>
</svg>
