<svg xmlns="http://www.w3.org/2000/svg" xmlns:xlink="http://www.w3.org/1999/xlink" width="85.75" height="85.75" viewBox="0 0 85.75 85.75">
  <defs>
    <clipPath id="clip-path">
      <path id="Path_104" data-name="Path 104" d="M139.21,139.21h85.75v85.75H139.21Z" transform="translate(-139.21 -139.21)" fill="#d87967"/>
    </clipPath>
  </defs>
  <g id="premium-ico" transform="translate(-139.21 -139.21)">
    <path id="Path_100" data-name="Path 100" d="M347.682,276.732a8.039,8.039,0,0,0-16.078,0v8.04a1.34,1.34,0,0,0,1.34,1.34h13.4a1.34,1.34,0,0,0,1.34-1.34Zm-9.379,6.7h-4.02v-4.02h4.02Zm0-6.7h-4.02a5.365,5.365,0,0,1,4.02-5.183Zm6.7,6.7h-4.02v-4.02H345Zm-4.02-6.7v-5.183A5.365,5.365,0,0,1,345,276.732Z" transform="translate(-157.558 -106.038)" fill="#d87967"/>
    <path id="Path_101" data-name="Path 101" d="M188.652,462.69h13.4a1.34,1.34,0,0,0,1.34-1.34V450.631a8.039,8.039,0,0,0-16.078,0V461.35a1.34,1.34,0,0,0,1.34,1.34Zm8.039-17.242a5.364,5.364,0,0,1,4.019,5.183v1.34h-4.02Zm0,9.2h4.02v5.359h-4.02Zm-6.7-4.02a5.364,5.364,0,0,1,4.019-5.183v6.523h-4.02Zm0,4.02h4.02v5.359h-4.02Z" transform="translate(-39.393 -248.45)" fill="#d87967"/>
    <path id="Path_102" data-name="Path 102" d="M483.94,442.59a8.048,8.048,0,0,0-8.039,8.039v10.719a1.34,1.34,0,0,0,1.34,1.34h13.4a1.341,1.341,0,0,0,1.34-1.34V450.629a8.049,8.049,0,0,0-8.039-8.039Zm-1.34,17.419h-4.02v-5.36h4.02Zm0-8.039h-4.02v-1.34a5.364,5.364,0,0,1,4.019-5.183Zm6.7,8.039h-4.02v-5.36h4.02Zm0-8.039h-4.02v-6.523h0a5.364,5.364,0,0,1,4.019,5.183Z" transform="translate(-275.727 -248.448)" fill="#d87967"/>
    <g id="Group_154" data-name="Group 154" transform="translate(139.21 139.21)" clip-path="url(#clip-path)">
      <path id="Path_103" data-name="Path 103" d="M223.622,170.691h-9.9l-8.281-4.5a1.343,1.343,0,0,0-.639-.162h-8.642V162.78a4.018,4.018,0,0,0,4.851-6.32l-16.078-16.079a4.025,4.025,0,0,0-5.684,0L163.167,156.46a4.01,4.01,0,0,0,4.852,6.3v3.268h-8.642a1.343,1.343,0,0,0-.639.162l-8.281,4.5h-9.9a1.34,1.34,0,0,0-1.34,1.34v5.359a1.34,1.34,0,0,0,1.34,1.34h.67v4.689h-.67a1.34,1.34,0,0,0-1.34,1.34v5.36a1.34,1.34,0,0,0,1.34,1.34h.67v25.458h-.67a1.341,1.341,0,0,0-1.34,1.34v5.36h0a1.34,1.34,0,0,0,1.34,1.34h83.07a1.34,1.34,0,0,0,1.34-1.34v-5.36h0a1.341,1.341,0,0,0-1.34-1.34h-.67V191.459h.67a1.34,1.34,0,0,0,1.34-1.34v-5.36a1.34,1.34,0,0,0-1.34-1.34h-.67v-4.689h.67a1.34,1.34,0,0,0,1.34-1.34v-5.359a1.34,1.34,0,0,0-1.34-1.34ZM166.957,160.25a1.34,1.34,0,1,1-1.895-1.9l16.078-16.078a1.342,1.342,0,0,1,1.895,0l16.078,16.079h0a1.343,1.343,0,0,1,0,1.9,1.373,1.373,0,0,1-1.895,0l-14.183-14.184a1.34,1.34,0,0,0-1.895,0Zm36.5,13.822v9.348h-7.3v-9.348Zm-7.3,17.387h24.118v25.458H196.156Zm-8.709-2.68H176.728a2.683,2.683,0,0,0-2.68,2.68v25.458H170.7V160.3l11.388-11.389L193.476,160.3v56.62h-3.35V191.459a2.683,2.683,0,0,0-2.679-2.68Zm0,2.68v25.458h-4.02V191.459Zm-6.7,0v25.458h-4.02V191.459Zm-38.855-18.088h8.9a1.343,1.343,0,0,0,.639-.162l8.281-4.5h8.225v2.68h-8.565a1.343,1.343,0,0,0-.639.162l-8.282,4.5h-8.564Zm26.126.7v9.348h-7.3v-9.348Zm-9.982.912v8.436H150.6v-4.689h.2a1.336,1.336,0,0,0,.639-.163Zm-10.116,3.746v4.689H143.9v-4.689Zm-6.029,7.369h26.126v2.68H141.892Zm26.126,5.359v25.458H143.9V191.459Zm54.264,30.818h-80.39V219.6h80.39Zm0-33.5H196.156V186.1h26.126Zm-16.145-5.36v-8.436l6.6,3.585h0a1.222,1.222,0,0,0,.165.064v4.788Zm9.446,0V178.73h4.689v4.689Zm6.7-7.369h-8.565l-8.281-4.5a1.343,1.343,0,0,0-.639-.162h-8.565v-2.68h8.225l8.281,4.5a1.343,1.343,0,0,0,.639.162h8.9Z" transform="translate(-139.212 -139.207)" fill="#d87967"/>
    </g>
  </g>
</svg>
