<svg xmlns="http://www.w3.org/2000/svg" width="47" height="46.996" viewBox="0 0 47 46.996">
  <g id="quality-ico" transform="translate(-10.009 -9.995)">
    <path id="Path_45" data-name="Path 45" d="M54.5,34.295c-.059-.247-.123-.493-.188-.7s-.118-.4-.182-.587h0v-.065a17.436,17.436,0,0,0-.887-2.144,16.843,16.843,0,0,0-2.89-4.112c-.17-.176-.341-.347-.523-.523a16.826,16.826,0,0,0-4.112-2.885,17.037,17.037,0,0,0-2.162-.869c-.211-.07-.435-.141-.587-.188s-.488-.141-.723-.2A16.091,16.091,0,0,0,39.2,21.57H37.333a16.156,16.156,0,0,0-3.043.446c-.247.059-.493.123-.7.188s-.435.129-.64.2a17.037,17.037,0,0,0-2.168.9,16.843,16.843,0,0,0-4.112,2.89c-.176.17-.347.341-.523.523a16.826,16.826,0,0,0-2.885,4.112,17.566,17.566,0,0,0-.881,2.1v.076h0l-.041.135c-.047.147-.094.294-.129.417-.07.241-.141.488-.2.734s-.135.587-.188.869h0a16.773,16.773,0,0,0-.323,3.108,16.573,16.573,0,0,0,.476,3.977c.059.247.123.493.188.7s.129.435.2.64a17.038,17.038,0,0,0,.9,2.168,16.843,16.843,0,0,0,2.89,4.112c.17.176.341.347.523.523.323.305.658.587,1,.893a17.43,17.43,0,0,0,2.532,1.674h0l.059.029.47.247a17.036,17.036,0,0,0,2.185.9c.211.07.435.141.587.188s.488.141.723.2a16.82,16.82,0,0,0,7.955,0c.247-.059.493-.123.7-.188s.435-.129.64-.2a17.038,17.038,0,0,0,2.168-.893l.552-.288a16.9,16.9,0,0,0,2.567-1.692h0c.329-.264.664-.558,1-.875.176-.17.347-.341.523-.523a16.825,16.825,0,0,0,2.885-4.112,17.038,17.038,0,0,0,.881-2.191c.071-.211.141-.435.188-.587s.141-.488.2-.723a16.579,16.579,0,0,0,.493-3.977,16.75,16.75,0,0,0-.294-3.09C54.64,34.882,54.581,34.594,54.5,34.295ZM43.66,41.862l2.5,7.7-.153.117-.135.094-.229.141-6.539-4.741a1.469,1.469,0,0,0-1.727,0l-6.527,4.741-.235-.147-.135-.088-.153-.117,2.5-7.7a1.469,1.469,0,0,0-.535-1.645l-7.367-5.346h9.106a1.469,1.469,0,0,0,1.4-1.016l2.808-8.648,2.82,8.654a1.469,1.469,0,0,0,1.4,1.016h9.106l-7.373,5.346a1.469,1.469,0,0,0-.535,1.639ZM42.121,25.024l.5.153a14.012,14.012,0,0,1,1.762.74,13.853,13.853,0,0,1,3.372,2.35l.441.441a13.87,13.87,0,0,1,2.285,3.2h-6.95L41.181,24.8l.323.065C41.715,24.907,41.9,24.96,42.121,25.024ZM28.256,28.737,28.7,28.3a13.865,13.865,0,0,1,3.372-2.35,14.011,14.011,0,0,1,1.8-.74l.523-.164c.182-.059.376-.106.587-.153l.323-.065-2.344,7.109H25.982a13.847,13.847,0,0,1,2.274-3.2Zm-2.35,15.7a14.012,14.012,0,0,1-.74-1.8c-.053-.164-.106-.329-.164-.523s-.106-.376-.153-.587a13.653,13.653,0,0,1-.411-3.255c0-.041,0-.076,0-.117l5.287,3.819-1.762,5.464a13.847,13.847,0,0,1-2.056-3Zm16.179,7.091c-.182.059-.376.106-.587.153a13.941,13.941,0,0,1-6.556,0c-.188-.047-.376-.094-.587-.164l-.5-.153h0l4.388-3.184,4.383,3.184h0Zm9.564-9.987c-.047.188-.094.376-.164.587s-.1.329-.153.5a14.013,14.013,0,0,1-.74,1.762,13.847,13.847,0,0,1-2.044,3l-1.762-5.458,5.287-3.819v.112a13.659,13.659,0,0,1-.417,3.331Z" transform="translate(-4.74 -4.775)" fill="#fff"/>
    <path id="Path_46" data-name="Path 46" d="M56.338,27.928c-.082-.347-.176-.687-.264-.993s-.176-.587-.276-.887a23.264,23.264,0,0,0-5.287-8.812c-.241-.247-.488-.5-.74-.74a23.253,23.253,0,0,0-8.783-5.287c-.3-.106-.587-.194-.869-.27s-.676-.194-1.01-.276a23.7,23.7,0,0,0-11.162,0c-.347.082-.687.176-.993.264s-.587.176-.887.276a23.264,23.264,0,0,0-8.812,5.287c-.247.241-.5.488-.74.74a23.253,23.253,0,0,0-5.287,8.783c-.106.3-.194.587-.27.869s-.194.676-.276,1.01a23.57,23.57,0,0,0,0,11.162c.082.347.176.687.264.993s.176.587.276.887a23.264,23.264,0,0,0,5.287,8.812c.241.247.488.5.74.74a23.264,23.264,0,0,0,8.783,5.287c.3.106.587.194.869.27s.676.194,1.01.276a23.57,23.57,0,0,0,11.162,0c.347-.082.687-.176.993-.264s.587-.176.887-.276a23.276,23.276,0,0,0,8.812-5.287c.247-.241.5-.488.74-.74a23.253,23.253,0,0,0,5.287-8.783c.106-.3.194-.587.27-.869s.194-.676.276-1.01A23.57,23.57,0,0,0,56.338,27.928ZM53.477,38.391c-.07.288-.147.587-.241.881s-.141.488-.229.74a20.475,20.475,0,0,1-1.1,2.667A20.685,20.685,0,0,1,48.384,47.7c-.211.217-.429.441-.652.652a20.356,20.356,0,0,1-7.7,4.653c-.241.082-.488.159-.764.235s-.587.159-.864.235a20.709,20.709,0,0,1-9.776,0c-.288-.07-.587-.147-.881-.241s-.488-.141-.74-.229a20.34,20.34,0,0,1-2.667-1.1,20.644,20.644,0,0,1-5.023-3.525c-.217-.211-.441-.429-.652-.652a20.321,20.321,0,0,1-4.653-7.7c-.082-.241-.159-.488-.235-.764s-.159-.587-.235-.864a20.627,20.627,0,0,1,0-9.776c.07-.288.147-.587.241-.881s.141-.488.229-.74a20.474,20.474,0,0,1,1.1-2.667,20.685,20.685,0,0,1,3.525-5.023c.211-.217.429-.441.652-.652a20.321,20.321,0,0,1,7.7-4.653c.241-.082.488-.159.764-.235s.587-.159.864-.235a20.627,20.627,0,0,1,9.776,0c.288.07.587.147.881.241s.488.141.74.229a20.474,20.474,0,0,1,2.667,1.1A20.685,20.685,0,0,1,47.7,18.634c.217.211.441.429.652.652a20.321,20.321,0,0,1,4.653,7.7c.082.241.159.488.235.764s.159.587.235.864A20.627,20.627,0,0,1,53.477,38.391Z" fill="#fff"/>
  </g>
</svg>
