<svg id="ready-to-go-ico" xmlns="http://www.w3.org/2000/svg" width="69.384" height="54.132" viewBox="0 0 69.384 54.132">
  <path id="Path_26" data-name="Path 26" d="M70.606,31.421,62.28,20.32a1.388,1.388,0,0,0-1.11-.555H43.13V8.663a4.08,4.08,0,0,0-4.066-4.08L30.655,4.5h-.014a1.388,1.388,0,0,0,0,2.775l8.423.083a1.307,1.307,0,0,1,1.291,1.3v33.3H26.317a9.664,9.664,0,0,0-13.555,0H4.275V22.54a1.388,1.388,0,0,0-2.775,0V46.214a4.083,4.083,0,0,0,4.08,4.08H9.968a9.667,9.667,0,0,0,19.15,0h16.93a9.667,9.667,0,0,0,19.15,0h4.3a1.388,1.388,0,0,0,1.388-1.388V32.254A1.388,1.388,0,0,0,70.606,31.421Zm-3.885-.555H57.007V22.54h3.469ZM4.275,46.214V44.743H10.8a9.547,9.547,0,0,0-.833,2.775H5.58a1.307,1.307,0,0,1-1.3-1.3Zm15.264,9.63a6.938,6.938,0,1,1,6.938-6.938A6.938,6.938,0,0,1,19.54,55.844Zm9.572-8.326a9.547,9.547,0,0,0-.833-2.775H40.355v2.775Zm26.507,8.326a6.938,6.938,0,1,1,6.938-6.938,6.938,6.938,0,0,1-6.938,6.938Zm9.572-8.326a9.667,9.667,0,0,0-19.15,0H43.13V22.54h11.1v9.714a1.388,1.388,0,0,0,1.388,1.388H68.109V47.518Z" transform="translate(-1.5 -4.5)" fill="#ecc333"/>
  <path id="Path_27" data-name="Path 27" d="M2.888,7.275H22.315a1.388,1.388,0,0,0,0-2.775H2.888a1.388,1.388,0,1,0,0,2.775Z" transform="translate(-1.5 -4.5)" fill="#ecc333"/>
  <path id="Path_28" data-name="Path 28" d="M2.5,7.888A1.388,1.388,0,0,0,3.888,9.275h22.2a1.388,1.388,0,1,0,0-2.775H3.888A1.388,1.388,0,0,0,2.5,7.888Z" transform="translate(0.275 -0.949)" fill="#ecc333"/>
  <path id="Path_29" data-name="Path 29" d="M2.888,11.275H22.315a1.388,1.388,0,0,0,0-2.775H2.888a1.388,1.388,0,0,0,0,2.775Z" transform="translate(-1.5 2.601)" fill="#ecc333"/>
  <path id="Path_30" data-name="Path 30" d="M4.5,11.888a1.388,1.388,0,0,0,1.388,1.388H25.315a1.388,1.388,0,0,0,0-2.775H5.888A1.388,1.388,0,0,0,4.5,11.888Z" transform="translate(3.826 6.152)" fill="#ecc333"/>
</svg>
