<svg id="simulating-ico" xmlns="http://www.w3.org/2000/svg" width="63.298" height="75.47" viewBox="0 0 63.298 75.47">
  <path id="Path_13" data-name="Path 13" d="M58.347,23.522c.063,0,.128.021.191.021a3.587,3.587,0,0,0,1.153-6.983v-.952a14.6,14.6,0,0,0-28.2-5.349l-.3-.066a3.587,3.587,0,0,0-1.938,6.9v4.6a14.617,14.617,0,0,0,9.389,13.626,15.081,15.081,0,0,0-3,1.854L33.7,38.735H25.2l-.62-2.891a2.427,2.427,0,0,0,1.026-1.978h5.34l-.6-1.789a6.269,6.269,0,0,0-5.043-4.224,2.424,2.424,0,0,0-2.135-1.29H18.3a2.427,2.427,0,0,0-2.1,1.217H13.435A2.437,2.437,0,0,0,11,30.214v2.435a2.437,2.437,0,0,0,2.435,2.435h2.773a2.446,2.446,0,0,0,1.089.993l1.068,4.268a4.824,4.824,0,0,0,1.956,7.826L21.6,53.3a3.255,3.255,0,0,0,1.264,1.853,7.859,7.859,0,0,0-.912,3.665V69.507l-1.369.456a3.339,3.339,0,0,0,1.057,6.506h14.92v-.049a8.8,8.8,0,0,0,1.114-.175l14.164-3.27L53.1,74.87a3.6,3.6,0,0,0,6.588-2v-7.36a3.656,3.656,0,0,0-3.652-3.652H52.355A6.023,6.023,0,0,0,53.6,58.211V38.735h-.018a5.028,5.028,0,0,0-2.671-4.256A14.632,14.632,0,0,0,58.347,23.522ZM45.083,3.435A12.186,12.186,0,0,1,57.256,15.607v.376L33.91,10.8A12.219,12.219,0,0,1,45.083,3.435ZM31.693,21.693V17.666l9.738,2.164v4.3h2.435a1.217,1.217,0,1,1,0,2.435H41.432V33.62A12.192,12.192,0,0,1,31.693,21.693Zm6.254,16.814a12.734,12.734,0,0,1,3.037-1.519Zm-17.417.465L19.863,36.3h2.325l.522,2.435h-.755A4.8,4.8,0,0,0,20.531,38.972Zm5.076-7.541v-1a3.84,3.84,0,0,1,1.593,1ZM18.3,29h4.869v4.869H18.3Zm-4.869,1.217h2.435v2.435H13.435ZM21.955,41.17H37.027l2.435,4.869H21.955a2.435,2.435,0,1,1,0-4.869Zm6.2,21.86a8.641,8.641,0,0,0-1.2,6.137H24.39V58.82a5.436,5.436,0,0,1,.968-3.1,3.272,3.272,0,0,0,2.431-1.95,5.58,5.58,0,0,1,5.122.515v1.145ZM27.87,51.2l-.583-2.723h5.624v3.065A8.2,8.2,0,0,0,27.87,51.2ZM24.8,48.473l.792,3.7a.837.837,0,0,1,.018.174v.167a.833.833,0,0,1-1.642.2l-1.059-4.237Zm10.549,0h6.4l9.26-5.145c.057-.032.107-.072.163-.106V54.56H35.345Zm-13.7,25.563a.9.9,0,0,1-.286-1.763l2.015-.672h4.387a8.771,8.771,0,0,0,1.809,2.435Zm35.613-8.521v7.36a1.161,1.161,0,0,1-2.128.644L53.6,71.232V64.3h2.435A1.219,1.219,0,0,1,57.256,65.515ZM42.649,64.3H51.17v6.335l-14.041,3.24a6.546,6.546,0,0,1-1.519.163,6.351,6.351,0,0,1-5.385-9.717L34.8,56.994H51.17v1.217a3.656,3.656,0,0,1-3.652,3.652H37.78V64.3Zm7.176-23.1-7.873,4.374L39.412,40.5l7.84-3.921a2.659,2.659,0,0,1,1.17-.275h.133a2.614,2.614,0,0,1,1.27,4.9Zm-5.958-7.334V29a3.652,3.652,0,1,0,0-7.3V20.37L50.9,21.933l.528-2.376L30.167,14.833a1.16,1.16,0,1,1,.5-2.264l28.113,6.247a1.16,1.16,0,0,1,.475,2.036,1.166,1.166,0,0,1-.976.228L54,20.129l-.53,2.376,2.483.553A12.185,12.185,0,0,1,43.866,33.866Z" transform="translate(1.173 -1)" fill="#ecc333"/>
  <path id="Path_14" data-name="Path 14" d="M16.462,36.012l-2.072,3.01-2.4-3.491-4.236-.313L9.6,31.432,7.751,27.645l4.236-.313,2.4-3.491,2.072,3.01,2-1.38-2.859-4.156V1H1V76.47H15.607V41.548l2.861-4.156ZM3.435,74.036V3.435h9.738v17.88L10.643,24.99l-6.655.491,2.9,5.951-2.9,5.951,6.655.491,2.529,3.675V74.036Z" transform="translate(-1 -1)" fill="#ecc333"/>
  <rect id="Rectangle_57" data-name="Rectangle 57" width="3" height="3" transform="translate(35.226 19.399)" fill="#ecc333"/>
  <rect id="Rectangle_58" data-name="Rectangle 58" width="2" height="10" transform="translate(5.226 4.399)" fill="#ecc333"/>
  <rect id="Rectangle_59" data-name="Rectangle 59" width="2" height="2" transform="translate(5.226 17.399)" fill="#ecc333"/>
  <rect id="Rectangle_60" data-name="Rectangle 60" width="3" height="10" transform="translate(7.226 41.399)" fill="#ecc333"/>
  <rect id="Rectangle_61" data-name="Rectangle 61" width="2" height="7" transform="translate(5.226 63.399)" fill="#ecc333"/>
</svg>
