<svg xmlns="http://www.w3.org/2000/svg" xmlns:xlink="http://www.w3.org/1999/xlink" width="545" height="144" viewBox="0 0 545 144">
  <defs>
    <filter id="Path_35" x="17.624" y="10" width="111.092" height="125.34" filterUnits="userSpaceOnUse">
      <feOffset dy="3" input="SourceAlpha"/>
      <feGaussianBlur stdDeviation="3" result="blur"/>
      <feFlood flood-opacity="0.161"/>
      <feComposite operator="in" in2="blur"/>
      <feComposite in="SourceGraphic"/>
    </filter>
    <filter id="Path_36" x="151.624" y="8.486" width="111.092" height="125.34" filterUnits="userSpaceOnUse">
      <feOffset dy="3" input="SourceAlpha"/>
      <feGaussianBlur stdDeviation="3" result="blur-2"/>
      <feFlood flood-opacity="0.161"/>
      <feComposite operator="in" in2="blur-2"/>
      <feComposite in="SourceGraphic"/>
    </filter>
    <filter id="Path_38" x="285.624" y="8.486" width="111.092" height="125.34" filterUnits="userSpaceOnUse">
      <feOffset dy="3" input="SourceAlpha"/>
      <feGaussianBlur stdDeviation="3" result="blur-3"/>
      <feFlood flood-opacity="0.161"/>
      <feComposite operator="in" in2="blur-3"/>
      <feComposite in="SourceGraphic"/>
    </filter>
    <filter id="Path_40" x="419.624" y="10" width="111.092" height="125.34" filterUnits="userSpaceOnUse">
      <feOffset dy="3" input="SourceAlpha"/>
      <feGaussianBlur stdDeviation="3" result="blur-4"/>
      <feFlood flood-opacity="0.161"/>
      <feComposite operator="in" in2="blur-4"/>
      <feComposite in="SourceGraphic"/>
    </filter>
  </defs>
  <g id="we-work-img" transform="translate(-960 -392)">
    <g id="Group_19" data-name="Group 19" transform="translate(-1405 5686)">
      <g transform="matrix(1, 0, 0, 1, 2365, -5294)" filter="url(#Path_35)">
        <path id="Path_35-2" data-name="Path 35" d="M1194.327-5938.249l46.034-28,47.059,28v51.235l-47.059,28.106-46.034-28.106Z" transform="translate(-1167.7 5982.25)" fill="#fff"/>
      </g>
      <g transform="matrix(1, 0, 0, 1, 2365, -5294)" filter="url(#Path_36)">
        <path id="Path_36-2" data-name="Path 36" d="M1194.327-5938.249l46.034-28,47.059,28v51.235l-47.059,28.106-46.034-28.106Z" transform="translate(-1033.7 5980.73)" fill="#fff"/>
      </g>
      <g transform="matrix(1, 0, 0, 1, 2365, -5294)" filter="url(#Path_38)">
        <path id="Path_38-2" data-name="Path 38" d="M1194.327-5938.249l46.034-28,47.059,28v51.235l-47.059,28.106-46.034-28.106Z" transform="translate(-899.7 5980.73)" fill="#fff"/>
      </g>
      <g transform="matrix(1, 0, 0, 1, 2365, -5294)" filter="url(#Path_40)">
        <path id="Path_40-2" data-name="Path 40" d="M1194.327-5938.249l46.034-28,47.059,28v51.235l-47.059,28.106-46.034-28.106Z" transform="translate(-765.7 5982.25)" fill="#fff"/>
      </g>
      <path id="Path_34" data-name="Path 34" d="M1194.327-5942.562l38.943-23.685,39.81,23.685v43.343l-39.81,23.777-38.943-23.777Z" transform="translate(1204 696)" fill="none" stroke="#707070" stroke-width="5"/>
      <path id="Path_37" data-name="Path 37" d="M1194.327-5942.562l38.943-23.685,39.81,23.685v43.343l-39.81,23.777-38.943-23.777Z" transform="translate(1338 694.486)" fill="none" stroke="#707070" stroke-width="5"/>
      <path id="Path_39" data-name="Path 39" d="M1194.327-5942.562l38.943-23.685,39.81,23.685v43.343l-39.81,23.777-38.943-23.777Z" transform="translate(1472 694.486)" fill="none" stroke="#707070" stroke-width="5"/>
      <path id="Path_41" data-name="Path 41" d="M1194.327-5942.562l38.943-23.685,39.81,23.685v43.343l-39.81,23.777-38.943-23.777Z" transform="translate(1606 696)" fill="none" stroke="#707070" stroke-width="5"/>
      <path id="Path_42" data-name="Path 42" d="M1166.773-5913.359s.837-70.27,65.794-70.187,67.531,66.434,67.531,66.434,2.221,67.713,70.329,66.483,62.732-76.272,62.732-76.272.152-54.057,65.5-56.645,68.3,73.955,68.3,73.955,7.1,62.112,71.863,58.962,61.349-64.525,61.349-64.525" transform="translate(1204 695)" fill="none" stroke="#d3d3d3" stroke-width="2" stroke-dasharray="5"/>
      <g id="Polygon_1" data-name="Polygon 1" transform="translate(2365 -5222)" fill="#707070">
        <path d="M 10.10846900939941 8.5 L 0.8915305733680725 8.5 L 5.5 0.9588682055473328 L 10.10846900939941 8.5 Z" stroke="none"/>
        <path d="M 5.5 1.917726516723633 L 1.783055305480957 8 L 9.216944694519043 8 L 5.5 1.917726516723633 M 5.5 0 L 11 9 L 0 9 L 5.5 0 Z" stroke="none" fill="#707070"/>
      </g>
      <g id="Polygon_5" data-name="Polygon 5" transform="translate(2631 -5222)" fill="#707070">
        <path d="M 10.10846900939941 8.5 L 0.8915305733680725 8.5 L 5.5 0.9588682055473328 L 10.10846900939941 8.5 Z" stroke="none"/>
        <path d="M 5.5 1.917726516723633 L 1.783055305480957 8 L 9.216944694519043 8 L 5.5 1.917726516723633 M 5.5 0 L 11 9 L 0 9 L 5.5 0 Z" stroke="none" fill="#707070"/>
      </g>
      <g id="Polygon_9" data-name="Polygon 9" transform="translate(2899 -5222)" fill="#707070">
        <path d="M 10.10846900939941 8.5 L 0.8915305733680725 8.5 L 5.5 0.9588682055473328 L 10.10846900939941 8.5 Z" stroke="none"/>
        <path d="M 5.5 1.917726516723633 L 1.783055305480957 8 L 9.216944694519043 8 L 5.5 1.917726516723633 M 5.5 0 L 11 9 L 0 9 L 5.5 0 Z" stroke="none" fill="#707070"/>
      </g>
      <g id="Polygon_2" data-name="Polygon 2" transform="translate(2447 -5294) rotate(90)" fill="#707070">
        <path d="M 10.10846900939941 8.5 L 0.8915305733680725 8.5 L 5.5 0.9588682055473328 L 10.10846900939941 8.5 Z" stroke="none"/>
        <path d="M 5.5 1.917726516723633 L 1.783055305480957 8 L 9.216944694519043 8 L 5.5 1.917726516723633 M 5.5 0 L 11 9 L 0 9 L 5.5 0 Z" stroke="none" fill="#707070"/>
      </g>
      <g id="Polygon_6" data-name="Polygon 6" transform="translate(2711 -5294) rotate(90)" fill="#707070">
        <path d="M 10.10846900939941 8.5 L 0.8915305733680725 8.5 L 5.5 0.9588682055473328 L 10.10846900939941 8.5 Z" stroke="none"/>
        <path d="M 5.5 1.917726516723633 L 1.783055305480957 8 L 9.216944694519043 8 L 5.5 1.917726516723633 M 5.5 0 L 11 9 L 0 9 L 5.5 0 Z" stroke="none" fill="#707070"/>
      </g>
      <g id="Polygon_4" data-name="Polygon 4" transform="translate(2581 -5161) rotate(90)" fill="#707070">
        <path d="M 10.10846900939941 8.5 L 0.8915305733680725 8.5 L 5.5 0.9588682055473328 L 10.10846900939941 8.5 Z" stroke="none"/>
        <path d="M 5.5 1.917726516723633 L 1.783055305480957 8 L 9.216944694519043 8 L 5.5 1.917726516723633 M 5.5 0 L 11 9 L 0 9 L 5.5 0 Z" stroke="none" fill="#707070"/>
      </g>
      <g id="Polygon_8" data-name="Polygon 8" transform="translate(2846 -5161) rotate(90)" fill="#707070">
        <path d="M 10.10846900939941 8.5 L 0.8915305733680725 8.5 L 5.5 0.9588682055473328 L 10.10846900939941 8.5 Z" stroke="none"/>
        <path d="M 5.5 1.917726516723633 L 1.783055305480957 8 L 9.216944694519043 8 L 5.5 1.917726516723633 M 5.5 0 L 11 9 L 0 9 L 5.5 0 Z" stroke="none" fill="#707070"/>
      </g>
      <g id="Polygon_3" data-name="Polygon 3" transform="translate(2510 -5213) rotate(180)" fill="#707070">
        <path d="M 10.10846900939941 8.5 L 0.8915305733680725 8.5 L 5.5 0.9588682055473328 L 10.10846900939941 8.5 Z" stroke="none"/>
        <path d="M 5.5 1.917726516723633 L 1.783055305480957 8 L 9.216944694519043 8 L 5.5 1.917726516723633 M 5.5 0 L 11 9 L 0 9 L 5.5 0 Z" stroke="none" fill="#707070"/>
      </g>
      <g id="Polygon_7" data-name="Polygon 7" transform="translate(2776 -5213) rotate(180)" fill="#707070">
        <path d="M 10.10846900939941 8.5 L 0.8915305733680725 8.5 L 5.5 0.9588682055473328 L 10.10846900939941 8.5 Z" stroke="none"/>
        <path d="M 5.5 1.917726516723633 L 1.783055305480957 8 L 9.216944694519043 8 L 5.5 1.917726516723633 M 5.5 0 L 11 9 L 0 9 L 5.5 0 Z" stroke="none" fill="#707070"/>
      </g>
    </g>
    <g id="download_3_" data-name="download (3)" transform="translate(1009.144 441.331)">
      <path id="Path_15" data-name="Path 15" d="M28.534,19.128a.709.709,0,0,0,.772-.163l1.622-1.651,1.622,1.651a.718.718,0,0,0,.772.163.7.7,0,0,0,.439-.659V13.985a4.959,4.959,0,1,0-5.667,0v4.484A.7.7,0,0,0,28.534,19.128Zm3.811-2.387-.914-.928a.736.736,0,0,0-1.013,0l-.914.928V14.679a4.894,4.894,0,0,0,1.417.205,5.149,5.149,0,0,0,1.417-.205v2.061ZM27.387,9.926a3.542,3.542,0,1,1,3.542,3.542A3.543,3.543,0,0,1,27.387,9.926Z" transform="translate(-8.368 -2.155)" fill="#57585a"/>
      <path id="Path_16" data-name="Path 16" d="M46.2,35.017a.708.708,0,0,0-1-.071L36.737,42.32l-.347-.489v-.007l-4.746-6.687a.007.007,0,0,1-.007-.007l-.17-.234L46.109,23.08a.71.71,0,1,0-.893-1.105L30.057,34.209a.716.716,0,0,0-.135.963l.128.177-.574.368a1.656,1.656,0,0,1-1.169.234l-6.1-1.112a3.04,3.04,0,0,0-2.961,1.155,4.184,4.184,0,0,0-.73-.007,2.88,2.88,0,0,1-1.884-.5l-.411-.29a.713.713,0,0,0-.135-.949L2.054,22.839a.713.713,0,0,0-.9,1.105L14.663,34.939l-.014.021h0L9.641,42.016v.007l-.234.326L2.082,35.8a.707.707,0,0,0-.942,1.056l7.92,7.07a.716.716,0,0,0,.475.177.29.29,0,0,0,.078-.007.7.7,0,0,0,.5-.29l.29-.4,1.7,1.19-.269.39a1.9,1.9,0,0,0,.468,2.635h0a1.745,1.745,0,0,0,.645.283,1.893,1.893,0,0,0,.779,1.806h0a1.868,1.868,0,0,0,1.084.34,1.949,1.949,0,0,0,.886-.22,1.833,1.833,0,0,0,.489.5,1.852,1.852,0,0,0,1.084.34c.043,0,.085-.014.135-.014a1.916,1.916,0,0,0,.723,1.034h0a1.868,1.868,0,0,0,1.084.34,1.9,1.9,0,0,0,1.551-.808l.269-.39,1.707,1.2a1.877,1.877,0,0,0,1.133.375,2.01,2.01,0,0,0,1.643-.85,1.913,1.913,0,0,0,.262-.524l.715.5a2,2,0,0,0,1.495.333,1.974,1.974,0,0,0,1.289-.822,2,2,0,0,0,.312-.687,2.011,2.011,0,0,0,1.969-.616,2.048,2.048,0,0,0,.475-1.558,2.023,2.023,0,0,0-.312-.85,2.022,2.022,0,0,0,.63-.687,1.94,1.94,0,0,0,.234-1.027l3.089-2.366.375.531a.7.7,0,0,0,.5.29c.028,0,.057.007.085.007a.725.725,0,0,0,.468-.177l9.053-7.892A.72.72,0,0,0,46.2,35.017ZM12.977,45.806l1.289-1.842a.476.476,0,1,1,.779.545l-.184.262-1.105,1.58a.476.476,0,0,1-.666.113A.483.483,0,0,1,12.977,45.806Zm1.544,2.749a.476.476,0,0,1-.113-.666l2.316-3.308a.457.457,0,0,1,.3-.191.474.474,0,0,1,.354.078.457.457,0,0,1,.191.3.474.474,0,0,1-.078.354L15.18,48.434A.469.469,0,0,1,14.521,48.554Zm2.451.63h0a.457.457,0,0,1-.191-.3.474.474,0,0,1,.078-.354l1.289-1.842a.457.457,0,0,1,.3-.191.345.345,0,0,1,.085-.007.451.451,0,0,1,.269.085.457.457,0,0,1,.191.3.474.474,0,0,1-.078.354l-1.289,1.842a.457.457,0,0,1-.3.191A.489.489,0,0,1,16.973,49.185Zm2.607,1.24a.472.472,0,0,1-.857-.184.474.474,0,0,1,.078-.354h0l.46-.652a.475.475,0,0,1,.659-.113.483.483,0,0,1,.113.666Zm11.526-4.477a.575.575,0,0,1-.383.283.56.56,0,0,1-.46-.092l-4.435-3.1A.707.707,0,1,0,25.02,44.2l4.435,3.1.921.645a.576.576,0,0,1,.241.4.567.567,0,0,1-.142.453.631.631,0,0,1-.829.05l-5.3-3.712a.707.707,0,0,0-.808,1.162l4.435,3.1a.585.585,0,0,1,.241.375.553.553,0,0,1-.1.432.58.58,0,0,1-.808.142l-4.435-3.1a.707.707,0,1,0-.808,1.162l2.154,1.509h0a.581.581,0,0,1,.135.808.58.58,0,0,1-.808.142l-2-1.4a1.911,1.911,0,0,0-.8-1.537,2.034,2.034,0,0,0-.468-.227,1.935,1.935,0,0,0,.135-1.1,1.839,1.839,0,0,0-.779-1.218,1.886,1.886,0,0,0-.645-.29,1.779,1.779,0,0,0-.007-.581,1.839,1.839,0,0,0-.779-1.218,1.888,1.888,0,0,0-1.417-.312,1.91,1.91,0,0,0-.553.2,1.962,1.962,0,0,0-.489-.51,1.891,1.891,0,0,0-2.635.468l-.205.29-1.693-1.183,4.187-5.9.418.29a4.209,4.209,0,0,0,2.43.751l-1.679,2.394a1.372,1.372,0,0,0-.227,1.006,1.345,1.345,0,0,0,.553.864,3.007,3.007,0,0,0,4.18-.737l1.24-1.771,8.543,5.986A.668.668,0,0,1,31.105,45.947ZM32,44.268a3.036,3.036,0,0,0-.319-.283L28.8,41.973a2.976,2.976,0,0,0,1.311-1.048.707.707,0,1,0-1.162-.808,1.613,1.613,0,0,1-2.246.4L22.548,37.6a.419.419,0,0,0-.1-.043.6.6,0,0,0-.156-.064.654.654,0,0,0-.262-.007h-.014c-.028.007-.05.021-.078.028a.661.661,0,0,0-.177.071.752.752,0,0,0-.205.191l-1.643,2.352a1.585,1.585,0,0,1-2.139.432l2.55-3.648a1.622,1.622,0,0,1,1.629-.666l6.1,1.112a3.02,3.02,0,0,0,2.189-.432l.63-.4,3.96,5.582Z" transform="translate(-1.28 -7.07)" fill="#57585a"/>
      <path id="Path_17" data-name="Path 17" d="M15.678,22.939a.71.71,0,0,0,.708-.708V2.417H39.056V22.231a.708.708,0,1,0,1.417,0V1.708A.71.71,0,0,0,39.764,1H15.678a.71.71,0,0,0-.708.708V22.231A.706.706,0,0,0,15.678,22.939Z" transform="translate(-5.16 -1)" fill="#57585a"/>
      <path id="Path_18" data-name="Path 18" d="M38.1,27.97H19.678a.708.708,0,1,0,0,1.417H38.1a.708.708,0,0,0,0-1.417Z" transform="translate(-6.327 -8.864)" fill="#57585a"/>
      <path id="Path_19" data-name="Path 19" d="M38.805,32.678a.71.71,0,0,0-.708-.708H19.678a.708.708,0,0,0,0,1.417H38.1A.706.706,0,0,0,38.805,32.678Z" transform="translate(-6.327 -10.031)" fill="#57585a"/>
      <path id="Path_20" data-name="Path 20" d="M24.678,35.97a.708.708,0,1,0,0,1.417H36.013a.708.708,0,0,0,0-1.417Z" transform="translate(-7.785 -11.197)" fill="#57585a"/>
      <path id="Path_21" data-name="Path 21" d="M31.381,12.809a.7.7,0,0,0,.5.205.726.726,0,0,0,.5-.205l2.125-2.125a.706.706,0,0,0-1-1l-1.622,1.622-.418-.418a.706.706,0,1,0-1,1Z" transform="translate(-9.621 -3.472)" fill="#57585a"/>
    </g>
    <g id="download_2_" data-name="download (2)" transform="translate(1289 441.331)">
      <path id="Path_13" data-name="Path 13" d="M34.458,12.158c.031,0,.063.01.095.01a1.777,1.777,0,0,0,.571-3.46V8.237a7.236,7.236,0,0,0-13.969-2.65l-.148-.033a1.777,1.777,0,0,0-.96,3.417v2.281A7.242,7.242,0,0,0,24.7,18a7.472,7.472,0,0,0-1.484.919l-.967.774H18.036l-.307-1.432a1.2,1.2,0,0,0,.508-.98h2.646l-.3-.887a3.106,3.106,0,0,0-2.5-2.093,1.2,1.2,0,0,0-1.058-.639H14.619a1.2,1.2,0,0,0-1.039.6H12.206A1.207,1.207,0,0,0,11,15.474V16.68a1.207,1.207,0,0,0,1.206,1.206H13.58a1.212,1.212,0,0,0,.54.492l.529,2.114a2.39,2.39,0,0,0,.969,3.877l.636,2.543a1.613,1.613,0,0,0,.626.918,3.893,3.893,0,0,0-.452,1.816v5.3l-.678.226a1.654,1.654,0,0,0,.523,3.224h7.392v-.024a4.358,4.358,0,0,0,.552-.087l7.018-1.62.625.938a1.782,1.782,0,0,0,3.264-.988V32.964a1.811,1.811,0,0,0-1.809-1.809H31.489a2.984,2.984,0,0,0,.619-1.809V19.7H32.1a2.491,2.491,0,0,0-1.323-2.108A7.249,7.249,0,0,0,34.458,12.158ZM27.887,2.206a6.038,6.038,0,0,1,6.031,6.031v.186L22.351,5.853A6.054,6.054,0,0,1,27.887,2.206Zm-6.634,9.046v-2l4.825,1.072v2.13h1.206a.6.6,0,1,1,0,1.206H26.077v3.5A6.041,6.041,0,0,1,21.253,11.253Zm3.1,8.33a6.309,6.309,0,0,1,1.5-.753Zm-8.629.23-.331-1.324h1.152L16.8,19.7h-.374A2.376,2.376,0,0,0,15.722,19.813Zm2.515-3.736v-.5a1.9,1.9,0,0,1,.789.5Zm-3.619-1.206h2.412v2.412H14.619Zm-2.412.6h1.206V16.68H12.206ZM16.428,20.9H23.9L25.1,23.314H16.428a1.206,1.206,0,1,1,0-2.412ZM19.5,31.732a4.281,4.281,0,0,0-.595,3.041H17.634V29.647a2.693,2.693,0,0,1,.479-1.537,1.621,1.621,0,0,0,1.2-.966,2.764,2.764,0,0,1,2.538.255v.568Zm-.144-5.863-.289-1.349h2.786v1.519A4.061,4.061,0,0,0,19.358,25.87Zm-1.523-1.349.393,1.831a.415.415,0,0,1,.009.086v.083a.413.413,0,0,1-.814.1l-.525-2.1Zm5.226,0h3.172l4.588-2.549c.028-.016.053-.036.081-.052v5.617h-7.84ZM16.273,37.185a.448.448,0,0,1-.142-.873l1-.333H19.3a4.346,4.346,0,0,0,.9,1.206Zm17.645-4.222V36.61a.575.575,0,0,1-1.054.319L32.108,35.8V32.361h1.206A.6.6,0,0,1,33.917,32.964Zm-7.237-.6H30.9V35.5L23.945,37.1a3.243,3.243,0,0,1-.753.081,3.147,3.147,0,0,1-2.668-4.814l2.268-3.629H30.9v.6a1.811,1.811,0,0,1-1.809,1.809H24.268v1.206Zm3.555-11.444-3.9,2.167-1.258-2.515,3.885-1.943a1.318,1.318,0,0,1,.58-.136h.066a1.3,1.3,0,0,1,.629,2.427Zm-2.952-3.634V14.871a1.809,1.809,0,1,0,0-3.619V10.6l3.485.774.262-1.177L20.5,7.854a.575.575,0,1,1,.249-1.122l13.928,3.1a.575.575,0,0,1,.235,1.009.578.578,0,0,1-.484.113l-2.119-.471-.262,1.177,1.23.274A6.037,6.037,0,0,1,27.283,17.283Z" transform="translate(-4.969 -1)" fill="#57585a"/>
      <path id="Path_14" data-name="Path 14" d="M8.66,18.347,7.634,19.838l-1.191-1.73-2.1-.155.914-1.876L4.345,14.2l2.1-.155,1.191-1.73L8.66,13.808l.993-.684L8.237,11.065V1H1V38.392H8.237V21.09l1.417-2.059ZM2.206,37.185V2.206H7.031v8.859L5.778,12.886l-3.3.243,1.436,2.949L2.481,19.026l3.3.243L7.031,21.09v16.1Z" transform="translate(-1 -1)" fill="#57585a"/>
      <rect id="Rectangle_57" data-name="Rectangle 57" width="1.486" height="1.486" transform="translate(17.453 9.611)" fill="#57585a"/>
      <rect id="Rectangle_58" data-name="Rectangle 58" width="0.991" height="4.954" transform="translate(2.589 2.179)" fill="#57585a"/>
      <rect id="Rectangle_59" data-name="Rectangle 59" width="0.991" height="0.991" transform="translate(2.589 8.62)" fill="#57585a"/>
      <rect id="Rectangle_60" data-name="Rectangle 60" width="1.486" height="4.954" transform="translate(3.58 20.511)" fill="#57585a"/>
      <rect id="Rectangle_61" data-name="Rectangle 61" width="0.991" height="3.468" transform="translate(2.589 31.411)" fill="#57585a"/>
    </g>
    <g id="_16-order" data-name="16-order" transform="translate(1148 441.331)">
      <path id="Path_22" data-name="Path 22" d="M35.377,0a.786.786,0,1,0,0,1.572.786.786,0,0,1,.786.786V29.087a.786.786,0,0,1-.786.786H2.358a.786.786,0,0,1-.786-.786V26.729H33.8a.786.786,0,0,0,0-1.572h-.786V2.358A2.358,2.358,0,0,0,30.66,0H11.792a.786.786,0,0,0-.558.228L4.945,6.517a.786.786,0,0,0-.228.558V25.157H1.572V2.358a.786.786,0,0,1,.786-.786H7.075A.786.786,0,0,0,7.075,0H2.358A2.358,2.358,0,0,0,0,2.358V29.087a2.358,2.358,0,0,0,2.358,2.358h9.434v4.717H10.22a.786.786,0,0,0,0,1.572h17.3a.786.786,0,1,0,0-1.572H25.943V31.446h9.434a2.358,2.358,0,0,0,2.358-2.358V2.358A2.358,2.358,0,0,0,35.377,0ZM11.006,2.681V5.5a.786.786,0,0,1-.786.786H7.4ZM6.289,7.861H10.22A2.358,2.358,0,0,0,12.578,5.5V1.572H30.66a.786.786,0,0,1,.786.786v22.8H6.289Zm18.081,28.3H13.365V31.446H24.371Z" transform="translate(0 0)" fill="#57585a"/>
      <path id="Path_23" data-name="Path 23" d="M27.792,13H16.786a.786.786,0,0,0-.786.786V24.792a.786.786,0,0,0,.786.786H27.792a.786.786,0,0,0,.786-.786V13.786A.786.786,0,0,0,27.792,13ZM21.5,14.572h1.572v2.358H21.5Zm-3.931,9.434V22.434h1.572a.786.786,0,0,0,0-1.572H17.572V14.572h2.358v3.145a.786.786,0,0,0,.786.786h3.145a.786.786,0,0,0,.786-.786V14.572h2.358v6.289H25.434a.786.786,0,1,0,0,1.572h1.572v1.572Z" transform="translate(-3.422 -2.78)" fill="#57585a"/>
      <path id="Path_24" data-name="Path 24" d="M35.334,17.239a.786.786,0,0,0-1.108,1.108l1.014,1.022-1.014,1.014a.786.786,0,1,0,1.108,1.108l1.572-1.572a.786.786,0,0,0,0-1.108Z" transform="translate(-7.26 -3.646)" fill="#57585a"/>
      <path id="Path_25" data-name="Path 25" d="M12.919,17.228a.786.786,0,0,0-1.108,0L10.238,18.8a.786.786,0,0,0,0,1.108l1.572,1.572a.786.786,0,0,0,1.108-1.108L11.9,19.358l1.014-1.014a.786.786,0,0,0,.008-1.116Z" transform="translate(-2.14 -3.635)" fill="#57585a"/>
    </g>
    <g id="download" transform="translate(1261.358 283.676)">
      <path id="Path_120" data-name="Path 120" d="M483.025,450a3.425,3.425,0,1,0,3.425,3.425A3.429,3.429,0,0,0,483.025,450Zm0,5.48a2.055,2.055,0,1,1,2.055-2.055A2.058,2.058,0,0,1,483.025,455.48Z" transform="translate(-295.452 -268.593)" fill="#57585a"/>
      <path id="Path_121" data-name="Path 121" d="M449.579,411.084l-1.053-.028a6.135,6.135,0,0,0-.238-.57l.738-.738a.684.684,0,0,0,0-.969l-1.937-1.938a.684.684,0,0,0-.968,0l-.767.723a6.121,6.121,0,0,0-.569-.232v-1.044a.685.685,0,0,0-.685-.685h-2.74a.685.685,0,0,0-.685.685l-.029,1.053a5.928,5.928,0,0,0-.568.238l-.738-.738a.706.706,0,0,0-.969,0l-1.937,1.938a.684.684,0,0,0,0,.969l.724.766a6.009,6.009,0,0,0-.233.57H435.88a.685.685,0,0,0-.685.685v2.74a.685.685,0,0,0,.685.685l1.053.028a6.143,6.143,0,0,0,.238.57l-.738.738a.684.684,0,0,0,0,.969l1.937,1.938a.684.684,0,0,0,.968,0l.767-.723a6.117,6.117,0,0,0,.569.232v1.043a.685.685,0,0,0,.685.685h2.74a.685.685,0,0,0,.685-.685l.029-1.053a5.912,5.912,0,0,0,.568-.238l.738.738a.706.706,0,0,0,.969,0l1.937-1.938a.684.684,0,0,0,0-.969l-.724-.766a6.005,6.005,0,0,0,.233-.57h1.045a.685.685,0,0,0,.685-.685v-2.74a.685.685,0,0,0-.685-.684Zm-.685,2.74h-.359a1.378,1.378,0,0,0-1.3.938,4.23,4.23,0,0,1-.172.418,1.379,1.379,0,0,0,.257,1.58l.254.253-.969.969-.253-.253a1.393,1.393,0,0,0-1.581-.257,4.4,4.4,0,0,1-.419.173,1.4,1.4,0,0,0-.937,1.3v.359h-1.37v-.359a1.4,1.4,0,0,0-.937-1.3c-.143-.051-.283-.11-.418-.173a1.4,1.4,0,0,0-1.582.256l-.254.254-.969-.969.253-.253a1.379,1.379,0,0,0,.256-1.582,4.266,4.266,0,0,1-.172-.418,1.379,1.379,0,0,0-1.3-.935h-.359v-1.37h.359a1.378,1.378,0,0,0,1.3-.938,4.23,4.23,0,0,1,.172-.418,1.379,1.379,0,0,0-.257-1.58l-.253-.254.969-.969.253.253a1.4,1.4,0,0,0,1.581.257,4.406,4.406,0,0,1,.419-.173,1.4,1.4,0,0,0,.937-1.3v-.359h1.37v.359a1.4,1.4,0,0,0,.937,1.3c.143.051.284.11.418.173a1.394,1.394,0,0,0,1.582-.256l.253-.253.969.969-.254.254a1.379,1.379,0,0,0-.256,1.582,4.258,4.258,0,0,1,.172.418,1.379,1.379,0,0,0,1.3.936h.359Z" transform="translate(-255.157 -228.308)" fill="#57585a"/>
      <path id="Path_122" data-name="Path 122" d="M201.835,456.85a3.425,3.425,0,1,0-3.425-3.425A3.429,3.429,0,0,0,201.835,456.85Zm0-5.48a2.055,2.055,0,1,1-2.055,2.055A2.058,2.058,0,0,1,201.835,451.37Z" transform="translate(-40.291 -268.593)" fill="#57585a"/>
      <path id="Path_123" data-name="Path 123" d="M154.7,415.194l1.053.028a6.147,6.147,0,0,0,.238.57l-.738.738a.684.684,0,0,0,0,.969l1.937,1.938a.684.684,0,0,0,.968,0l.767-.723a6.114,6.114,0,0,0,.569.232v1.044a.685.685,0,0,0,.685.685h2.74a.685.685,0,0,0,.685-.685l.029-1.053a5.912,5.912,0,0,0,.568-.238l.738.738a.706.706,0,0,0,.969,0l1.937-1.938a.684.684,0,0,0,0-.969l-.724-.766a6.017,6.017,0,0,0,.233-.57H168.4a.685.685,0,0,0,.685-.685v-2.74a.685.685,0,0,0-.685-.685l-1.053-.028a6.146,6.146,0,0,0-.238-.57l.738-.738a.684.684,0,0,0,0-.969l-1.937-1.938a.684.684,0,0,0-.968,0l-.767.723a6.117,6.117,0,0,0-.569-.232V406.29a.685.685,0,0,0-.685-.685h-2.74a.685.685,0,0,0-.685.685l-.029,1.053a5.912,5.912,0,0,0-.568.238l-.738-.737a.705.705,0,0,0-.969,0l-1.937,1.938a.684.684,0,0,0,0,.969l.724.766a6.017,6.017,0,0,0-.233.57H154.7a.685.685,0,0,0-.685.685v2.74a.684.684,0,0,0,.685.685Zm.685-2.74h.359a1.378,1.378,0,0,0,1.3-.938,4.234,4.234,0,0,1,.172-.418,1.379,1.379,0,0,0-.257-1.58l-.253-.253.969-.969.253.253a1.4,1.4,0,0,0,1.581.257,4.407,4.407,0,0,1,.419-.173,1.4,1.4,0,0,0,.937-1.3v-.359h1.37v.359a1.4,1.4,0,0,0,.937,1.3c.143.051.283.11.418.173a1.394,1.394,0,0,0,1.582-.256l.253-.254.969.969-.253.253a1.379,1.379,0,0,0-.256,1.582,4.266,4.266,0,0,1,.172.418,1.378,1.378,0,0,0,1.3.936h.359v1.37h-.359a1.378,1.378,0,0,0-1.3.938,4.234,4.234,0,0,1-.172.418,1.379,1.379,0,0,0,.257,1.58l.253.254-.969.969-.253-.253a1.393,1.393,0,0,0-1.581-.257,4.4,4.4,0,0,1-.419.173,1.4,1.4,0,0,0-.937,1.3v.359h-1.37v-.359a1.4,1.4,0,0,0-.937-1.3c-.143-.051-.283-.11-.418-.173a1.4,1.4,0,0,0-1.582.256l-.253.253-.969-.969.253-.253a1.379,1.379,0,0,0,.256-1.582,4.266,4.266,0,0,1-.172-.418,1.379,1.379,0,0,0-1.3-.935h-.359Z" transform="translate(-0.003 -228.308)" fill="#57585a"/>
      <path id="Path_124" data-name="Path 124" d="M309.4,413h1.37v1.37H309.4Z" transform="translate(-141.007 -235.018)" fill="#57585a"/>
      <path id="Path_125" data-name="Path 125" d="M339,413h1.37v1.37H339Z" transform="translate(-167.867 -235.018)" fill="#57585a"/>
      <path id="Path_126" data-name="Path 126" d="M368.6,413h1.37v1.37H368.6Z" transform="translate(-194.727 -235.018)" fill="#57585a"/>
      <path id="Path_127" data-name="Path 127" d="M398.2,413h1.37v1.37H398.2Z" transform="translate(-221.587 -235.018)" fill="#57585a"/>
      <path id="Path_128" data-name="Path 128" d="M427.8,413h1.37v1.37H427.8Z" transform="translate(-248.447 -235.018)" fill="#57585a"/>
      <path id="Path_129" data-name="Path 129" d="M309.4,546.2h1.37v1.37H309.4Z" transform="translate(-141.007 -355.888)" fill="#57585a"/>
      <path id="Path_130" data-name="Path 130" d="M339,546.2h1.37v1.37H339Z" transform="translate(-167.867 -355.888)" fill="#57585a"/>
      <path id="Path_131" data-name="Path 131" d="M368.6,546.2h1.37v1.37H368.6Z" transform="translate(-194.727 -355.888)" fill="#57585a"/>
      <path id="Path_132" data-name="Path 132" d="M398.2,546.2h1.37v1.37H398.2Z" transform="translate(-221.587 -355.888)" fill="#57585a"/>
      <path id="Path_133" data-name="Path 133" d="M427.8,546.2h1.37v1.37H427.8Z" transform="translate(-248.447 -355.888)" fill="#57585a"/>
      <path id="Path_134" data-name="Path 134" d="M154.01,583.19h41.1v1.37h-41.1Z" transform="translate(-0.001 -389.454)" fill="#57585a"/>
      <path id="Path_135" data-name="Path 135" d="M191.682,295.421v-7.535A.685.685,0,0,0,191,287.2h-8.22a.685.685,0,0,0-.685.685v7.535h-2.74v-7.535a.685.685,0,0,0-.685-.685h-8.22a.685.685,0,0,0-.685.685v7.535h-2.74v-7.535a.685.685,0,0,0-.685-.685h-8.22a.685.685,0,0,0-.685.685v7.535h-3.425v1.37h41.1v-1.37Zm-30.139-6.85h1.37v2.74h-1.37Zm4.11,6.85H158.8v-6.85h1.37V292a.685.685,0,0,0,.685.685h2.74a.685.685,0,0,0,.685-.685v-3.425h1.37Zm8.22-6.85h1.37v2.74h-1.37Zm4.11,6.85h-6.85v-6.85h1.37V292a.685.685,0,0,0,.685.685h2.74a.685.685,0,0,0,.685-.685v-3.425h1.37Zm8.22-6.85h1.37v2.74H186.2Zm4.11,6.85h-6.85v-6.85h1.37V292a.685.685,0,0,0,.685.685h2.74a.685.685,0,0,0,.685-.685v-3.425h1.37Z" transform="translate(0 -120.864)" fill="#57585a"/>
      <path id="Path_136" data-name="Path 136" d="M444.519,154.144a.685.685,0,0,0-1.1.548v1.37h-7.535a.685.685,0,0,0-.685.685v4.11a.685.685,0,0,0,.685.685h7.535v1.37a.685.685,0,0,0,1.1.548l5.48-4.11a.685.685,0,0,0,0-1.1Zm.274,7.4v-.685a.685.685,0,0,0-.685-.685h-7.535v-2.74h7.535a.685.685,0,0,0,.685-.685v-.685l3.653,2.74Z" transform="translate(-255.165)" fill="#57585a"/>
    </g>
  </g>
</svg>
